<?xml version="1.0" encoding="UTF-8"?>
<svg version="1.1" viewBox="0 0 2048 2048" width="1280" height="1280" xmlns="http://www.w3.org/2000/svg">
<path transform="translate(1008,185)" d="m0 0h29l22 3 25 5 21 6 26 10 21 11 21 16 10 8 9 11 8 11 3 8 3 24 5 37 2 28 1 24 3 4 244 69 42 12 8 4 8 8 4 8 1 4v751l-4 10-7 8-8 5-11 3-10 1 3 9v54l-3 22-5 20-5 14-10 17-8 10-8 7-1 296-4 23-6 18-8 17-8 12-8 10-9 10-10 9-13 9-14 8-14 6-14 4-16 3-11 1h-578l-18-2-19-5-15-6-15-8-13-9-12-11-10-10-10-14-9-16-5-12-6-20-2-14-1-14v-276l-9-2-10-5-7-6-7-10-4-12v-28l3-81 1-16-17-2-10-4-8-7-5-9-2-6v-723l4-10 6-8 10-6 41-14 42-14 43-14 156-52-2-5-1-5 5-10 1-32 2-25 6-41 4-18 8-16 9-11 8-8 16-12 22-12 20-9 23-7 25-6 25-4z" fill="#190707"/>
<path transform="translate(1095,650)" d="m0 0h8l5 3 2 4-7 11-16 16-8 7-27 27 4 1 2-5 9-7 5-2 13-12 5-4 7-8 11-13 4-5 2-4 7-5 8 1 5 3 2 3v12l-5 15-10 20-16 24-9 12-4 8 6-9 4-4h3l2-4 4-6 5-5 5-9 5-10 7-11 6-15 3-9 1-1h7l5 2 3 3 2 10h6l16 8 11 11v2h2v-2l9 3 6 16 21 2 33 4 5 2 2 3v47l-5 4-36-3 3 12 3 9v3l61 5 19 2 11 4 8 7 5 8 2 7v339l-6-1-1-335-3-9-6-8-8-4-15-2-57-5-6-1 5 5 6 2 57 5 10 2 7 5 4 8v337l-24 1-12 3-4 2h-7l-4-1-31-1-5-2-6-1h-38l-4-1-4-3-5-1-2-3-13-6-13-3-13-1h-37l-11 3-2 4-6 3-4 1-8-4h-6v-2l-13-2h-15l-14 2-16 7-9-6-12-4h-83l-11 3-10 6-7 6-17 2h-5l-4 4-9-1-6-1v-9l4-11 10 1-3-7-1-2v-15l3-20 13 1h12l-5-4v-4h-8l-9-2-11-7-7-9-4-6-3-10-1-1v-8l6-3-5-4-3-4v-12l4-9 5-8 4 2 5 3h7l-3-3v-3l2-1-4-1-7-11-4-11v-11l3-6 2-2h9l-2-7-7-10-5-9-1-4v-11l4-7 5-5 5 1 3 2 9-1 4-1-8-3-7-4-4-7 5-2 15-3 32-12 22-10 15-7h2v-2l17-9 30-1 15-3 17-5 25-12 19-10 16-9 6-6 3-9v-3l-2 5-4-1v-2l-3 3-6 7-18 10-15 8-17 8-21 7-17 3-30 1-14 8-15 8-23 10-10 5-10 3-8 3-15 4-8 2-9 1h-28l-9-2-6-4-5-6-4-9-1-6v-15l3-17 5-17 7-19 5-12 9-21 8-17 7-31 6-18 7-11 11-11 10-6 12-6 17-5 22-7 21-7 11-5 4-2h4v12l3 17 4 6 15 8 12 4 5 1v2l-15 9h-2l1 3 7 4 3-1v-2h3v-2h3v-2l4-3h3v-2h3v-2l9-5 12-7h2v-2l5-1v-2l5-1v-2l6-3h2v-2l6-3h2v-2h3v-2l8-4 5-4h2v-2h3v-2l6-3h2v-2l6-3z" fill="#0A0929"/>
<path transform="translate(1445,1429)" d="m0 0h2v294l-4 23-6 18-8 17-8 12-8 10-9 10-10 9-13 9-14 8-14 6-14 4-16 3-11 1h-578l-18-2-19-5-15-6-15-8-13-9-12-11-10-10-10-14-9-16-5-12-6-20-2-14-1-14v-276l-3-1 7 1 19 2h15l9-1h33l3-1 24-1 9 6 7 3v85l2 21 2 16 3 15 8 24 9 17 8 10 7 7 10 7 11 5 11 3h24l14-4 16-8 11 3 31 3h7l5-1h22l18-1 4-1 26-2h8l10 3h39l9-2 10 1 18 1 11-1 11-4 6-3 13 7 15 4h24l12-3 15-6 11 7 12 4 38 1 8 5 12 3h35l13-4 9-5 8-8 6-12 2-10 1-180 1-1 14-1 13-4 6-3 12 6 16 4 6 1h12l16-3 14-6z" fill="#442523"/>
<path transform="translate(1008,185)" d="m0 0h29l22 3 25 5 21 6 26 10 21 11 21 16 10 8 9 11 8 11 3 8 3 24 5 37 2 28 1 24 3 4 244 69 42 12 8 4 8 8 4 8 1 4v175l-12-1-160-26-208-34-5-2 6-7 7-10 7-19 3-10 21-3 12-6 3-1v-6h6l2 1v-2l8-7 8-10 7-15 3-15v-11l-2-13-4-10-7-10-9-6-8-4-1-2-3 4-6-1 3-9 10-26 1-2h-10l-13-5 7 17 1 7-2 1-9-17-4-5-3-1 3 10 4 7v3l-5 5-1 15h-1l-1-13-6-21v-8l2-4-1-6-3-6-3-4-3-1v4h-2l-8-28-5-5-24-7-22-4-8-1h-11l-8 9-14 9-18 7-18 4h-27l-15-4-16-8-10-8-7-8h-8l-30 8-12 6-5 17-6 20-2 16-2 32 1 31 3 34 5 36 6 28 4 13v2h2l7 11 10 9 2 1v2l4 1 11 7v2l5 1v2l5 1 8 5 7 3 13 5 7 3 13 4v4l-8-1-19-4h-9l-10-5-15-9-2-1-11 1-137 27-240 47-4 3v24l4 3 21-3 285-47h6l-4 4-10 5-297 49h-9l-3-3-1-2v-34l4-5 91-18 132-26 108-21 54-11-7-4-91 18-163 32-128 25h-6v-165l4-10 6-8 10-6 41-14 42-14 43-14 156-52-2-5-1-5 5-10 1-32 2-25 6-41 4-18 8-16 9-11 8-8 16-12 22-12 20-9 23-7 25-6 25-4z"/>
<path transform="translate(837,696)" d="m0 0 1 2-9 15-5 14-1 5-38 6-3 4v43l3 5 18-1 3-9 10-23 3-10h1v6l3-1 3-3h1l-1 8-3 9-10 22-8 19-6 16-7 21-3 15-1 6v15l2 9 3 6v2l3 1 5 5 4 2 7 1h28l12-2 17-4 10-3 7-3 13-5 15-7 16-8 19-10 3-2 30-1 17-3 15-5 17-7 23-12 16-9 5-6 2-3h2l1 2 3 1 1-5 2-2-1 8-3 7-9 8-26 14-16 8-18 8-17 5-12 2-30 1-15 8h-2v2l-12 6-10 4-22 10-27 10-19 4 3 5v2l5 2 6 3 8 1-4 2-7 2h-6l-5-3-4 1-6 7-1 3v11l3 7 8 14 3 3v6l-9 1-3 5-1 2v11l5 13 5 7v2l5 1-3 1 3 5 2 2h-9l-9-6-7 14-1 3v12l4 5 5 2-4 3-4 1 1 8 6 14 8 11 11 7 17 3 2 5 7 3v1h-16l-11-1-2-1-1 11-1 9v15l3 5v4h-7l-3-1-3 11-1 9h-14l-10-6-10-3-67-2-9-6-8-3-7-1-17 1-25 4-8 3-7-1-9-2-12-1h-33l-10 3-10 7-7 8-5 12-1 4-1 13-2 55-1 10h-10l-10-2-8-4-7-6-5-9-2-6v-499l4-2 273-45z"/>
<path transform="translate(1078,340)" d="m0 0h11l26 4 25 7 6 3 3 4 7 25v3h2v-4l4 1 3 4 4 9-1 6-1 5 1 9 5 16 2-3 3-4h2l-6-13-1-7 4 1 7 10 6 11-1-7-5-12-1-5 9 3 14 2-3 9-8 22-3 6h6l4-5 1 4 14 7 6 7 5 8 4 12 1 9v11l-3 15-8 16-8 10-5 5-3 1v2h-6l-2-1 1 4-5 5-11 5-11 2h-10l-3 13-6 16-7 10-6 6 4 2 362 59 18 3v57l-64-8-272-35-16-8 4-1 311 40 26 3 4-4v-34l-3-4-374-61h-10l-3 3 15 3 363 59 5 3 1 1v24l-3 3-16-1-327-42-9-7-11-3-3-5-11-7-5-2-13 1-6-3-5-1h-8l-5 2 1-3 12-7 11-7h2l1-4 9-7 6-4 2-4v-3-2l-15 11-18 11-17 8-19 7-15 4h-5l-1 5 2 2 10 2 17-5 6-2v5l-16 9-15 10-22 13-13 8-10 4 1 2-7 5-12-3-12-5-10-6-4-6-3-17v-7l1-5-8 3-11 5-11 4-10 3-25 8-17 5-16 9-10 9-6 7-6 12-5 17-3 15h-4l-1 3h-3l-1-4-4 13-12 27-10 2h-8l-3-3-1-3v-43l4-5 33-5h5l1-8 5-13 8-13v-1l-284 47-25 4-4 1v-59l42-8 280-55 67-13 7 5v1l-106 21-107 21-113 22-60 12-3 4v34l1 4h11l297-49 12-6 1-1-12 1-126 21-170 28-5-1-3-3v-24l5-4 86-17 255-50 41-8h6l16 9 6 4 7 2h7l19 4 8 2v-4l-16-4-11-5-7-3-10-4-6-4-3-1v-2l-5-1v-2l-5-2-7-5-3-1v-2l-4-2-8-7-7-10v-2h-2l-6-19-5-24-6-45-2-25-1-33 3-40 4-17 5-15 3-11 8-5 19-6 16-4h8l10 11 14 9 12 5 12 3h27l21-5 17-7 13-9z" fill="#FDC09F"/>
<path transform="translate(1131,603)" d="m0 0h2v2l2 1-2 5-6 5-9 6-3 5-18 11-7 4 4-1h8l10 3 5 1 9-1 12 6 6 5 1 4 8 1 7 4 5 4 335 43h8l2-2v-24l-5-3-136-22-239-39-4-2 4-4h10l357 58 17 3 4 5v34l-5 5-26-3-264-34-49-6 14 7 249 32 85 11 2 1v519l-4 10-7 8-8 5-11 3h-11l-7-10-7-7 2-6 4-10 1-5v-13l-4-12-6-9-10-12-8-6-13-8-13-5-10-2h-20l-16 4-20 10-9-4-4-1-1-335-4-13-7-9-8-5-7-2-54-5-23-2-3-1-6-18v-6h11l25 2 4-3v-47l-2-3-20-3-34-4h-5l-5-15v-2l-9-3v2h-2l-7-8-7-6-13-6h-7l-2-11-3-3-4-1h-7l-3 9-8 19-9 14-4 9-6 8-4 4-4 6-5 3-6 9-3 4 1-6 8-12 9-12 12-19 11-23 3-10v-12l-4-4-5-2-7 1-5 4-3 5-9 11-9 10-6 7-16 14-5 2-7 6-3 5-5-1 6-7 28-28 8-7 9-9 7-11-3-5-3-1h-8l-6 3-3 2h-3v2l-5 3h-3v2h-3v2l-12 8h-3v2h-3v2l-5 3h-3v2l-5 3h-3v2l-5 1v2l-5 1v2l-16 9-4 3h-3v2h-3v2l-5 3h-2v2h-3v2h-3v2l-4 2v-2l-4-1-3-2v-3l14-8 9-7 1-1-4-2 10-2 11-6 21-13 18-11 14-9 6-2v-5l-12 5-13 3-9-3-2-3 2-4 26-7 20-8 17-9 18-12z"/>
<path transform="translate(1095,650)" d="m0 0h8l5 3 2 4-7 11-16 16-8 7-27 27 4 1 2-5 9-7 5-2 13-12 5-4 7-8 11-13 4-5 2-4 7-5 8 1 5 3 2 3v12l-5 15-10 20-16 24-9 12-4 8 6-9 4-4h3l2-4 4-6 5-5 5-9 5-10 7-11 6-15 3-9 1-1h7l5 2 3 3 2 10h6l16 8 11 11 7 14 3 13v15l-7 16-16 27-14 21-9 13-13 17-13 16-9 10-15 16-12 12-8 7-13 12-11 9-13 11-20 15-17 12-17 11-17 10-25 14-29 14-36 12-17 4-7 1h-14l-4-1-7-11-4-11v-11l3-6 2-2h9l-2-7-7-10-5-9-1-4v-11l4-7 5-5 5 1 3 2 9-1 4-1-8-3-7-4-4-7 5-2 15-3 32-12 22-10 15-7h2v-2l17-9 30-1 15-3 17-5 25-12 19-10 16-9 6-6 3-9v-3l-2 5-4-1v-2l-3 3-6 7-18 10-15 8-17 8-21 7-17 3-30 1-14 8-15 8-23 10-10 5-10 3-8 3-15 4-8 2-9 1h-28l-9-2-6-4-5-6-4-9-1-6v-15l3-17 5-17 7-19 5-12 9-21 8-17 7-31 6-18 7-11 11-11 10-6 12-6 17-5 22-7 21-7 11-5 4-2h4v12l3 17 4 6 15 8 12 4 5 1v2l-15 9h-2l1 3 7 4 3-1v-2h3v-2h3v-2l4-3h3v-2h3v-2l9-5 12-7h2v-2l5-1v-2l5-1v-2l6-3h2v-2l6-3h2v-2h3v-2l8-4 5-4h2v-2h3v-2l6-3h2v-2l6-3z" fill="#FDC09F"/>
<path transform="translate(825,402)" d="m0 0 4 2 3 9 4 15 4 9 2 7-8 5-6 4-8 11-4 9-3 10v10l1 3 2 1 2-9 2 2 4 19 8 16 6 9 8 8 14 8 2 2-6 2 2 3 7 2h16l5 10 3 11 6 15 10 11 10 8-3 1-91 18-163 32-128 25h-6v-165l4-10 6-8 10-6 41-14 42-14 43-14 156-52z"/>
<path transform="translate(1207,748)" d="m0 0 5 5 6 11 4 15 2 13 6 18 4 14 3 2v-2l5 1 7 8 5 11 1 5v17l-2 9 5 10 2 7v11l-8 10-10 9-19 14-17 12-14 10-14 9-15 12-15 10-12 10-19 14-16 11-16 12-18 11-11 7-16 9-23 12-25 12-29 11-26 7-29 5h-35l-15-1-10-5-6-5-9-13-3-10-1-1v-8l6-3-5-4-3-4v-12l4-9 5-8 4 2 5 3 4 1h17l26-5 30-10 26-12 25-13 25-15 25-17 21-16 12-9 13-11 11-9 7-7 8-7 11-11 6-5 7-8 11-11 7-8 9-10 10-13 11-16 7-10 7-11 9-14 10-19 6-13z" fill="#C3D3E7"/>
<path transform="translate(999,195)" d="m0 0h44l30 5 18 4 34 12 21 11 16 11 10 9 8 8 4 5 4 10 3 9 3 10 6 32 3 30v6h-2l-4-5h-3l10 9 1 7v9l-4-2-11-7-25-13-24-9-29-8-34-6-29-3-17-1h-19l-35 2-32 4-33 9-30 11-16 7-12 6-12 8-4 3h-2v-14l1-5 2-30 2-18 5-29 6-17 2-4h2l2-5 11-12 13-10 22-13 14-7 27-9 11-3 20-4z" fill="#FAFBFC"/>
<path transform="translate(1143,669)" d="m0 0h7l5 2 3 3 2 10h6l16 8 11 11 7 14 3 13v15l-7 16-16 27-14 21-9 13-13 17-13 16-9 10-15 16-12 12-8 7-13 12-11 9-13 11-20 15-17 12-17 11-17 10-25 14-29 14-36 12-17 4-7 1h-14l-4-1-7-11-4-11v-11l3-6 2-2h9l-2-7-7-10-5-9-1-4v-11l4-7 5-5 5 1 3 2 9-1 4-1-8-3-7-4-4-7 5-2 15-3 32-12 22-10 15-7h2v-2l17-9 30-1 15-3 17-5 25-12 19-10 16-9 6-6 3-9v-8l-1-5 6-4 4-8 1-3v-10l-4-8v-4l1-14 6-10 4-4h3l2-4 4-6 5-5 5-9 5-10 7-11 6-15 3-9z" fill="#C3D3E7"/>
<path transform="translate(1249,819)" d="m0 0 59 5 10 2 7 5 4 8v337l-24 1-12 3-4 2h-7l-4-1-31-1-5-2-6-1h-38l-1-1-3-37v-18l12-8 10-8 10-10 11-15 9-16 6-18 3-18v-27l-1-17 10-15 8-16 6-10 3-10v-17l-3-10-6-10-4-6-5-15v-27l-4-13-6-10-2-4h-2z" fill="#CC9833"/>
<path transform="translate(1158,382)" d="m0 0 4 1 3 4 4 9-1 6-1 5 1 9 5 16 2-3 3-4h2l-6-13-1-7 4 1 7 10 6 11-1-7-5-12-1-5 9 3 14 2-3 9-8 22-3 6h6l4-5 1 4 14 7 6 7 5 8 4 12 1 9v11l-3 15-8 16-8 10-5 5-3 1v2h-6l-2-1 1 4-5 5-11 5-11 2h-10l-3 13-6 16-7 10-6 6 4 2 362 59 18 3v57l-64-8-272-35-16-8 4-1 311 40 26 3 4-4v-34l-3-4-374-61h-10l-3 3 15 3 363 59 5 3 1 1v24l-3 3-16-1-327-42-9-7-11-3-3-5-11-7-5-2-13 1-6-3-5-1h-8l-5 2 1-3 12-7 11-7h2l1-4 9-7 6-4 2-4v-3l1-4 9-11 7-16 5-21 4-23 2-23 3-27v-48l-5-35-2-11z" fill="#CB9733"/>
<path transform="translate(912,614)" d="m0 0 7 4 1 2-106 21-107 21-113 22-60 12-3 4v34l1 4h11l297-49 12-6 1-1-12 1-126 21-170 28-5-1-3-3v-24l5-4 86-17 255-50 41-8h6l16 9 6 4 7 2h7l19 4 8 2v-4l22 3h29l-1 4 2 2 10 2 17-5 6-2v5l-16 9-15 10-22 13-13 8-10 4 1 2-7 5-12-3-12-5-10-6-4-6-3-17v-7l1-5-8 3-11 5-11 4-10 3-25 8-17 5-16 9-10 9-6 7-6 12-5 17-3 15h-4l-1 3h-3l-1-4-4 13-12 27-10 2h-8l-3-3-1-3v-43l4-5 33-5h5l1-8 5-13 8-13v-1l-284 47-25 4-4 1v-59l42-8 280-55z" fill="#CC9733"/>
<path transform="translate(1207,748)" d="m0 0 5 5 6 11 4 15 2 13 6 18 4 14 3 2v-2l5 1 7 8 5 11 1 5v17l-2 9 5 10 2 7v11l-5 5-3-19-5-12 1-17-2-11-5-13-5 2-3 7 4 1 4 5v8l-3 7-7 9-22 22h-2l-1 3-11 9-8 7h-2v2l-6 5h-2v2l-8 7-13 11-10 8-3 1v2l-11 9-13 10-5 4h-2v2l-5 4h-2v2l-14 11-7 5h-2v2l-18 13-18 12-14 9-11 6-16 9-16 8-18 8-25 9-20 5-18 2h-17l-7-2-7-9-3-6v-2l4 1 5 9-2-8-1-3 33-10 19-8 26-12 24-13 23-14 14-9 14-11 10-9 9-7h2v-2l9-7 13-11 10-10 7-8 12-14 10-11 12-16 11-16 8-10 10-15 11-18 9-14 9-17 8-13 7-14 2-6 1-10 3-6z" fill="#FDFDFD"/>
<path transform="translate(994,493)" d="m0 0 1 2-4 11 1 7 3 5 4 2-3-7-2-1 2-4 3-2 14 4h6l1-1 12-2 12-4 4 2 2 5-1 7-4 5 5-3h2l2-5 1-6h2v12l-4 8-3 3 26 1 10 2 11 6 5 6 4 9 1 14 9-1v-2l6-3 9-8 9-12 11-21 4-8h1l-1 18-4 23-6 21-6 11-8 10-15 13-14 9-16 8-15 6-20 6-14 2h-31l-12-2-23-7-25-12-15-10-10-8-12-12-5-9-6-17-6-31-1-7v-12l3 3 12 23 5 10 11 12 7 4v2h3v2l8 2 1-10 3-11 6-9 6-5 7-3 21-2 11-1 3-1-6-5-4-8v-12z" fill="#452422"/>
<path transform="translate(1013,327)" d="m0 0h19l29 2 30 4 29 6v2l5 2 7 5-2 1-20-5-21-3h-11l-8 9-14 9-18 7-18 4h-27l-15-4-16-8-10-8-7-8h-8l-30 8-12 6-5 17-6 20-2 16-2 32 1 31 3 34 5 36 6 28 4 13v2h2l7 11 10 9 2 1v2l4 1 11 7v2l5 1v2l5 1 8 5 7 3 13 5 7 3 13 4v4l-8-1-19-4h-9l-10-5-15-9-2-1-11 1-137 27-240 47-4 3v24l4 3 21-3 285-47h6l-4 4-10 5-297 49h-9l-3-3-1-2v-34l4-5 91-18 132-26 108-21 54-11-10-9-12-11-5-8-6-17-3-9-2-5h-16l-8-3-2-3 6-2-15-9-11-11-9-16-4-11-2-12v-8l2-10 6-12 7-6 4-2h12l7 4 7-2-1-4-5-7-5-3-4-5v-2h-2l-7-19-3-6-4-10-1-6h2v-3h2l2-4 5-6 10-7 4-1 2 1 1-4 14-7 11-6 4-5 1-3 25-9 30-8 32-4z" fill="#080722"/>
<path transform="translate(993,212)" d="m0 0h49l37 5 23 4-1-4 10 2 19 7 18 10 16 12 14 12 5 5-1 2-10-4 7 8 4 4 7 22 1 22 3 11v10l-3-3-2-4 1 5-4 1-7-2v2l5 2 6 5 5 7 8 7 1 1 1 7v9l-4-2-11-7-25-13-24-9-29-8-34-6-29-3-17-1h-19l-35 2-32 4-33 9-30 11-16 7-12 6-12 8-4 3h-2v-14l2-9 15-11 16-8 14-6 19-7 15-5 14-3h7v-2l30-5 31-3h44l30 3 46 8h4l1-4-5-1-15-4-3-9-6-15-3-5-4 2-3 5-4 1 2-6v-2l4-2h3l-1-6-10-15-2-4-8 7-4 2 3-5 3-3 2-5h-2v-2l8-5 3-4h2v-2h10l13 2 1-5-10-4-23-5-24-4-9-1h-52l-33 5-25 6-19 6-17 8-11 6-5 2-4 2 5-6 22-12 14-7 25-7 19-4zm88 74 2 2-2 2z" fill="#BFCFE4"/>
<path transform="translate(702,1201)" d="m0 0h9l1 13 5 128 2 47-1 2-17 2h-10l-3-58-4 14-7 30-4 16-2 1h-16l-3-8-16-65-1-2-3 75-3 1-25-3v-13l5-131 1-32 1-14h16l15 1 2 6 7 37 11 55 1 3 13-75 4-23 2-4z" fill="#FCFCFD"/>
<path transform="translate(968,1410)" d="m0 0h4l3 63 4 101 1 25-6 2-21 2-1-1-3-59-10 41-5 20-1 1h-17l-3-9-15-60-1-5-1 3-3 71-5 1-21-2-2-1 1-37 4-102 2-50h27l5 2 8 40 11 56 1 3 4-21 5-29 2-12 7-39z" fill="#FDC09F"/>
<path transform="translate(1095,650)" d="m0 0h8l5 3 2 4-7 11-16 16-8 7-27 27 4 1 2-5 9-7 5-2 13-12 5-4 7-8 11-13 4-5 2-4 7-5 8 1 5 3 2 3v12l-5 15-10 20-16 24-9 12-4 8v15 4l4 8v10l-4 9-5 5-3 1 2 5-1 5-2 5-4-1v-2h-2l-2-6-7 1-16 7-10 5-17 6h-3l1-5 12-7h3l1-3 9-3 19-10 16-8 2-3v-11l-2-1-9 1-28 14-17 8-8 3h-3l1-5 15-9 6-4h4v-2l3-2 9-3 23-12 3-3v-8l-4-4-7-1-32 16-20 11-9 4h-4l1-5 11-8 16-9 12-6 11-7 3-4v-6l-4-4h-11l-16 8-11 6-38 22-16 8 2-4 4-5 6-4 6-8 2-6v-12l-3-9-6-7-9-1-4 2-1 2-3 25-5 13-11 20-7 28-4 3-19 5-11 2-25 2-35 2-12 3-10 4-14 10v-3l7-10 7-7 9-5 10-3 17-2v-2h3l1-4 7-9 7-7 3-6 6-31 2-3 3 8 3 16v2l8-7 20-14 17-12 15-11 2-12 7-8 4-2h7l8 3 4 4 4 2 3-1v-2h3v-2h3v-2l4-3h3v-2h3v-2l9-5 12-7h2v-2l5-1v-2l5-1v-2l6-3h2v-2l6-3h2v-2h3v-2l8-4 5-4h2v-2h3v-2l6-3h2v-2l6-3z" fill="#090821"/>
<path transform="translate(952,653)" d="m0 0h4v12l3 17 4 6 15 8 12 4 5 1v2l-17 10-6-1-2-1h-7l-6 4-4 5-2 12-13 10-14 10-16 11-11 8-5 5h-2l-3-13-3-12-2 8-5 25-4 7-9 9-5 7-1 3h-3v2l-20 4-11 4-8 6-6 7-5 8 14-10 16-6 18-2 36-2 17-2 19-4 9-4 7-28 11-20 5-13 3-25 4-4 2-1 9 1 5 6-12-2h-2l-2 20-4 15-9 21-5 16-4 16-4 6-8 4-15 4-25 4-43 4-18 3-12 5-12 9-8 9-3 12v22h-2l-4-9-1-6v-15l3-17 5-17 7-19 5-12 9-21 8-17 7-31 6-18 7-11 11-11 10-6 12-6 17-5 22-7 21-7 11-5z" fill="#FDC09F"/>
<path transform="translate(1127,1412)" d="m0 0h12v2l7 1 12 7 11 15 7 14 5 16 4 18 1 9v32l-3 21-5 17-7 16-8 12-9 9-11 6-4 1h-11l-10-4-8-6-5-5-7-10-3-3-5-13-5-15-4-22-1-8v-23l4-26 3-13 6-13 4-9 1-2h2l2-6 8-9 7-5 6-2h4z" fill="#FDC09F"/>
<path transform="translate(1046,1203)" d="m0 0 12 1 12 6 10 10 8 13 7 17 4 15 2 11 1 11v28l-2 17-4 16-5 14-6 12-9 12-8 7-7 4-9 2-10-1-10-4v-2l-4-1-9-9-9-15-6-14-5-18-3-22v-24l3-22 6-21 6-14 10-14 5-5 7-6 7-3z" fill="#FCFCFD"/>
<path transform="translate(1158,382)" d="m0 0 4 1 3 4 4 9-1 6-1 5 1 9 5 16 2-3 3-4h2l-6-13-1-7 4 1 7 10 6 11-1-7-5-12-1-5 9 3 14 2-3 9-8 22-3 6h6l4-5 1 4 14 7 6 7 5 8 4 12 1 9v11l-3 15-8 16-8 10-5 5-3 1v2h-6l-2-1 1 4-5 5-11 5-11 2h-10l-3 13-6 16-7 10-6 6 4 2 362 59 18 3v57l-64-8-272-35-16-8 4-1 311 40 26 3 4-4v-34l-3-4-374-61h-10l-3 3-3 2-9 5 2-4 8-6 6-4 2-4v-3l1-4 9-11 7-16 5-21 4-23 2-23 3-27v-48l-5-35-2-11z" fill="#07051F"/>
<path transform="translate(1143,1032)" d="m0 0 1 3-2 8-11 18-16 23-10 14-11 14-11 13-15 16-10 10-12 9-4 2-14 2-16 7-9-6-12-4h-83l-11 3-10 6-7 6-17 2h-5l-4 4-9-1-6-1v-9l4-11 9 1h18l18-4 20-8 13-4 8-2 31-15 10-4 11-6 10-7 21-13 26-15h2v-2l-10 1-8 7-18 3 4-4 9-5 8-3 6-2v-2l11-5h2v-2l5-1v-2l7-2v-2h3v-2l5-1v-2l5-1v-2l15-8 9-1 10-2 18-4z" fill="#C1D1E6"/>
<path transform="translate(912,614)" d="m0 0 7 4 1 2-106 21-107 21-113 22-60 12-3 4v34l1 4h11l297-49 12-6 1-3 17-8 27-9 31-9 18-7 6-4h2v-4l5 1h7l19 4 8 2v-4l22 3h29l-1 4 2 2 10 2 17-5 6-2v5l-16 9-15 10-22 13-13 8-10 4 1 2-7 5-12-3-12-5-10-6-4-6-3-17v-7l1-5-8 3-11 5-11 4-10 3-25 8-17 5-16 9-10 9-6 7-6 12-5 17-3 15h-4l-1 3h-3l-1-4-4 13-12 27-10 2h-8l-3-3-1-3v-43l4-5 33-5h5l1-8 5-13 8-13v-1l-284 47-25 4-4 1v-59l42-8 280-55z" fill="#090727"/>
<path transform="translate(876,1218)" d="m0 0h25l1 1v178l-1 1h-26l-6-12-13-31-14-33-1-2-1 71h-27l-1-1v-166l2-2h25l3 4 8 22 5 12 7 21 11 29 1 1 1-92z" fill="#FCFCFD"/>
<path transform="translate(1310,1218)" d="m0 0h25l1 1v178l-1 1h-26l-7-14-12-29-15-35-1 71h-27l-1-1v-166l1-2h26l3 5 27 72 4 11 1-1 1-90z" fill="#FCFCFD"/>
<path transform="translate(1121,1199)" d="m0 0h12l18 2 15 6 10 9 6 9 4 11 3 13 1 9v24l-3 17-5 15-7 13-8 10 1 4 5 4 6 2 9 1 1 27v19l-2 1-13-1-10-4-9-7-8-10h-1l-1 22h-27l-1-1v-194z" fill="#FCFCFD"/>
<path transform="translate(995,1409)" d="m0 0h26l12 3 11 4 5 5 8 9 6 13 4 18 1 9v20l-3 18-4 12-8 16-9 11 3 5 5 3 12 2 1 1 1 7 1 38-1 1h-11l-10-3-9-6-5-4-6-8v-2h-2v23h-28z" fill="#FDC09F"/>
<path transform="translate(1100,801)" d="m0 0 2 4 1 4-12 17-9 16-9 9-8 7-11 10-17 13-5 5h-2v2l-19 14-12 9-18 12-7 5-7 3-21 13-7 3-9 3-4 3h-2l-2 4-16 8-18 8-19 7-7 2-12 1-2-7-7-10-5-9-1-4v-11l4-7 5-5 5 1 3 2 9-1 4-1-8-3-7-4-4-7 5-2 15-3 32-12 22-10 15-7h2v-2l17-9 30-1 15-3 17-5 25-12 19-10 16-9 6-6 3-9 4-5 6-5z" fill="#A2B8D4"/>
<path transform="translate(1257,1420)" d="m0 0h27v198h-27v-38l-28 1-1 28h-27v-187l1-1h26v112h29z" fill="#FEC1A0"/>
<path transform="translate(1398,1209)" d="m0 0h9l13 5 7 5 7 8 1 3-17 33-4-2-6-4h-10l-6 4h-2l-2 4-5 11-4 16v33l4 16 4 8 5 5 5 2 7-1 6-4 5-8 1-4h-17l-1-1v-46l27-1h20v41l-2 16-4 17-5 12-6 10-6 7-8 5-8 2h-11l-9-3-9-6-9-10-6-11-5-12-4-15-2-11-1-14v-24l3-22 4-17 8-19 7-11 7-8 9-6z" fill="#FCFCFD"/>
<path transform="translate(1008,185)" d="m0 0h29l22 3 25 5 21 6 26 10 21 11 21 16 10 8 9 11 8 11 3 8 3 24 5 37 2 28 1 24 3 4 3 2-2 1v7l-8 20-6 17-1 2h-2l-2 5-5 1-2-1 3-9 10-26 1-2h-10l-13-5 7 17 1 7-2 1-9-17-4-5-3-1 3 10 4 7v3l-5 5-1 15h-1l-1-13-6-21v-8l2-4-1-6-3-6-3-4-3-1v4h-2l-8-28-5-5-11-4-10-7-2-2 10 2 16 5 19 7 20 10 13 8 7 5-2-16-10-9 4-1 4 4v2h2l-5-42-6-31-4-13-4-7-2-5-11-12-10-9-17-11-19-10-34-12-28-6-20-3h-44l-22 3-25 5-27 9-9 4-16 8-17 10-10 8-10 9-6 9h-2l-3 10-4 11-5 29-3 28-1 20-1 5-1 14 6-4 14-9 16-8 15-6h3l-2 5-6 5-22 11-1 3-6 1-11 8-6 8h-2v3h-2l4 10 4 11 4 9 3 9v2h2l4 6 6 4 6 8-1 4-7 2-7-4h-12l-8 5-6 9-3 8-2 12-2 3-2 4-3-1-1-3v-10l4-13 6-11 8-9 11-6-4-12-4-11-4-15-2-3-3-1-1-5 5-10 1-32 2-25 6-41 4-18 8-16 9-11 8-8 16-12 22-12 20-9 23-7 25-6 25-4z" fill="#090822"/>
<path transform="translate(845,1417)" d="m0 0h3l3 31 1 28v27l-1 26-3 25-4 19-5 12-7 13-6 7-10 6-8 2h-8l-9-4-8-7-3-3-8-20-5-21-2-15-1-1-1-22v-49l2-33 1-14 1-1 8 1 18 6 1 4-2 20-2 42 1 38 2 14 3 10 4 6 2 1h7l3-3 1-2h2l3-9 3-15 2-18v-57l-2-27v-10z" fill="#FDC09F"/>
<path transform="translate(991,216)" d="m0 0h52l28 4 24 5 13 4 2 3-2 4h-9l-14-2v2l-5 5-6 4h-2v2h2l-2 6-5 6-4 8-5-3-5-6-8-12-2-1-9 12-4 3 2-4 10-13-1-5 3 1 6-8 1-2h-14l1 5-6-6h-10l-5 5-2-1 3-4-16-1 7 8-1 2-9-9h-10l-5 5-7 9v2l8 7 7 10h4l-1 3-5-1-11-14-5-3-10 15-6 8-5-2-11-13-1-2 2-2 8 10 5 6 2 1 2-5 11-16 2-5 3-1 7-10-13 1-2 2-1 2-3-2h-10l-4 2-7 14h-2l-2 6-6 8-8 14 2 4 2 1 17-1 3 1 2-5 5-5 5 1 1 1 14 1v-2l10 1 2-4 2-3 6 1 3 2v2l22-1 1-3 3-2 4 1 4 5 24 2-4 8-7 8h-2l1 4 9-2h9l3 5h-14l-20-1v-2h9l-8-16-4-7h-5l-8 11-4 7h-2l3 4v2l-11 1h-14l2-2 17-1-1-5-7-9-3-7-5-1-7 10-7 12-1 3 3 1v1l-11 1 3-3-1-5-10-13-1-3-5 3-4 6-1 4h-2l-1 5-4 6-1 1 3 1-1 4h-6l-2-6-4-7-2-5-4-5h-2l-4 7-4 12-1 2h-2l-1 4-1 2 3 1v2l-24 8-13 5-3 3-18 8-4 3h-3l1-6 5-11h-2l-1-3 4-10 3-3-4-4-1-6 2-1 3 5-1-4-1-1v-10l1-13 7-10 5-4 7-8 4-2-1 3 3-3 10-4 16-8 11-5 29-8 23-4z" fill="#A6BAD3"/>
<path transform="translate(735,1211)" d="m0 0 63 1v46h-37l1 33 22 1v46l-1 1h-22l1 17 35 1v46h-63v-191z" fill="#FCFDFD"/>
<path transform="translate(1159,705)" d="m0 0 9 2 9 7 3 7v15l-4 14-10 18-15 22-13 17-11 13-9 11-11 12-5 6-16 16-8 7-7 6h-2l-1 3-4 3h-2v2l-5 2v2l-7 5h-2v2l-9 7h-2l-1 3-16 12-9 6-16 12-16 11-9 5-4 1v2l-5 1v2l-8 4-5 3-7 4-11 6-25 10-17 4h-13l-3-1-1-4 4-5 6-3h2v-3l21-9 16-8 7-6 8-4 9-3 20-12 6-4 7-3 14-10 15-10 18-14 4-3h2v-2l11-9 16-13 14-13 8-7 4-5 9-16 12-17 10-16 10-17 11-19 8-16 8-20 5-11z" fill="#FDFDFD"/>
<path transform="translate(1131,603)" d="m0 0h2v2l2 1-2 5-6 5-9 6-3 5-18 11-7 4 4-1h8l10 3 5 1 9-1 12 6 6 5 1 4 8 1 7 4 5 4 335 43h8l2-2v-24l-5-3-136-22-239-39-4-2 4-4h10l357 58 17 3 4 5v34l-5 5-26-3-264-34-49-6 14 7 1 3 7 6 7 11-1 2-7-3v2h-2l-7-8-7-6-13-6h-7l-2-11-3-3-4-1h-7l-3 9-8 19-9 14-4 9-6 8-4 4-4 6-5 3-6 9-3 4 1-6 8-12 9-12 12-19 11-23 3-10v-12l-4-4-5-2-7 1-5 4-3 5-9 11-9 10-6 7-16 14-5 2-7 6-3 5-5-1 6-7 28-28 8-7 9-9 7-11-3-5-3-1h-8l-6 3-3 2h-3v2l-5 3h-3v2h-3v2l-12 8h-3v2h-3v2l-5 3h-3v2l-5 3h-3v2l-5 1v2l-5 1v2l-16 9-4 3h-3v2h-3v2l-5 3h-2v2h-3v2h-3v2l-4 2v-2l-4-1-3-2v-3l14-8 9-7 1-1-4-2 10-2 11-6 21-13 18-11 14-9 6-2v-5l-12 5-13 3-9-3-2-3 2-4 26-7 20-8 17-9 18-12z" fill="#0B0505"/>
<path transform="translate(998,305)" d="m0 0h46l30 3 46 8 6 3 20 6 25 9 13 7 6 5 5 7 8 7 1 1 1 7v9l-4-2-11-7-25-13-24-9-29-8-34-6-29-3-17-1h-19l-35 2-32 4-33 9-30 11-16 7-12 6-12 8-4 3h-2v-14l2-9 15-11 16-8 14-6 19-7 15-5 14-3h7v-2l30-5z" fill="#A6BBD7"/>
<path transform="translate(1095,650)" d="m0 0h8l5 3 2 4-7 11-16 16-8 7-27 27 4 1 2-5 9-7 5-2 13-12 5-4 7-8 11-13 4-5 2-4 7-5 8 1 5 3 2 3v12l-5 15-10 20-16 24-9 12-4 8h-2l-3-5-5-4-2-1-9-1-4-9-4-5-9-4-11 1-16 8-12 7-19 10h-3v-14l-5-13-2-3 3-1v-2h3v-2h3v-2l4-3h3v-2h3v-2l9-5 12-7h2v-2l5-1v-2l5-1v-2l6-3h2v-2l6-3h2v-2h3v-2l8-4 5-4h2v-2h3v-2l6-3h2v-2l6-3z" fill="#C2D2E7"/>
<path transform="translate(819,747)" d="m0 0h1v6l3-1 3-3h1l-1 8-3 9-10 22-8 19-6 16-7 21-3 15-1 6v15l2 9 3 6v2l3 1 5 5 4 2 7 1h28l12-2 17-4 10-3 7-3 13-5 15-7 16-8 19-10 3-2 30-1 17-3 15-5 17-7 23-12 16-9 5-6 2-3h2l1 2 3 1 1-5 2-2-1 8-3 7-9 8-26 14-16 8-18 8-17 5-12 2-30 1-15 8h-2v2l-12 6-10 4-22 10-27 10-19 4 3 5v2l5 2 6 3 8 1-4 2-7 2h-6l-5-3-4 1-6 7-1 3v11l3 7 8 14 3 3v6l-9 1-3 5-1 2v11l5 13 5 7v2l5 1-3 1 3 5 2 2h-9l-9-6-7 14-1 3v12l4 5 5 2-4 3-4 1 1 8 6 14 8 11 11 7 17 3 2 5 7 3v1h-16l-11-1-2-1-1 11-1 9v15l3 5v4h-7l-3-1-3 11-1 9h-8v-9l3-12 4-8 3-20 1-8v-11l-9-11-7-11-5-12-3-12v-19l4-12 7-12 2-3-1-8-2-6-1-10 2-10 5-11-3-9-4-8-1-4v-10l4-10 6-10 1-5-1-2-4-1-22-1-12-3-6-4-6-7-4-9-2-17v-12l2-15 10-30 11-28 1-6 11-24z" fill="#08061E"/>
<path transform="translate(1240,978)" d="m0 0h2l3 11 1 8v39l-4 17-8 18-8 11-8 10-9 10-11 8-2-1 9-14 16-32 4-12-6 7-6 15-12 22-10 13-6 7h-3v2l-9 4h-6l-5-4-1-3v-8l5-8 11-11 8-13 5-14 1-4v-12l-3-17v-4h-5l-1 27-2 9-4 7-6 5-2 1h-9l-6-5-1-2v-18l3-19 10-6 17-9 16-9 25-14 15-10z" fill="#D4694E"/>
<path transform="translate(914,1203)" d="m0 0h71v47h-20v146h-27l-1-145-1-1-22-1z" fill="#FDFDFD"/>
<path transform="translate(952,653)" d="m0 0h4v12l3 17 5 8 3 3-25-2-25-3h-25l-12 3-12 6-8 7-7 10-8 17-9 30-16 34-11 28-4 13v5l14-10 16-6 18-2 36-2 17-2 19-4 9-4 7-28 11-20 5-13 3-25 4-4 2-1 9 1 5 6-12-2h-2l-2 20-4 15-9 21-5 16-4 16-4 6-8 4-15 4-25 4-43 4-18 3-12 5-12 9-8 9-3 12v22h-2l-4-9-1-6v-15l3-17 5-17 7-19 5-12 9-21 8-17 7-31 6-18 7-11 11-11 10-6 12-6 17-5 22-7 21-7 11-5z" fill="#F9FAFB"/>
<path transform="translate(1030,1081)" d="m0 0h10v2l-18 10-20 12-17 11-12 8-8 3-7 3-31 15-8 2-16 5-18 7-15 3h-18v-5l-3-5v-15l3-20 13 1h12l-5-4v-4h-8v-1h44l29-5 29-8 10-2 11-4h7l6 1 5-1 1 1 16-3 3-1 2-4z" fill="#A2B8D4"/>
<path transform="translate(1149,847)" d="m0 0 1 3-1 6-7 9-5 7h-2l-2 5h-2l-2 5-5 6-29 29-9 10-15 15-16 14-5 5-11 10-13 10-11 9-19 14-4 1v2l-9 5-19 11-14 8-18 8-21 8-14 4-16 3h-6l-3-6 1-9 4-3 24-8h2l1-4 18-6 26-12 25-13 25-15 25-17 21-16 12-9 13-11 11-9 7-7 8-7 11-11 6-5 7-8 11-11 7-8 9-10z" fill="#FBFCFD"/>
<path transform="translate(1202,761)" d="m0 0h1v8l-5 13-11 19-12 21-8 13-10 16-10 15-9 11-10 15-14 18-18 20-7 9h-2l-2 4-13 13-11 9-5 4h-2v2l-6 4-8 7h-2l-1 3-14 11-13 9-20 12-21 12-21 11-10 4-9 4-19 8-24 7-27 4-12 1h-17v7h-1v-8l6-3-5-4-3-4v-12l4-9 5-8 4 2 5 3 4 1h17l26-5 9-3 3 1-3 3-26 9-2 6 1 7 1 2 13-1 17-4 25-9 17-8 14-7 24-14 4-3h3v-2l11-7 13-10 16-13 10-8 10-9h2l1-3 8-7 5-5 10-9 14-14 5-6h2l2-4 23-23 6-8 1-2h2l2-5h2l2-4 9-12 1-7h-2l2-4 10-13 8-12 7-10 7-11 9-14 10-19z" fill="#C3D3E7"/>
<path transform="translate(1142,1055)" d="m0 0h1l1 11 4 8 7 5 3 1h11l4-1-1 3-6 4-7 8-4 8-2 9 1 8 3 6 2 1v2l4 1h12l8-4h2l2 28v18l-17-8-25-5-17-1-24 1-2-10-3-7v-11l3-10 1-9 3-1 1-4 8-9 20-30h2l1-5 1-2h2z" fill="#A0B5D2"/>
<path transform="translate(1205,1218)" d="m0 0h26v184h-26l-2-1v-181z" fill="#FBFCFD"/>
<path transform="translate(1138,609)" d="m0 0 12 1 197 32 177 29v57l-64-8-272-35-16-8 4-1 311 40 26 3 4-4v-34l-3-4-380-62v-3z" fill="#CC8F35"/>
<path transform="translate(891,514)" d="m0 0 3 3 12 23 5 10 9 10-1 2h-5l4 10 7 13 10 8 3 3v2l6 2 8 7 11 10 13 5 18 5 7 1h42l22-5 10-4 9-8h2v-2l14-11 14-10 5-6 4-7 3-7 10-12 2-5 2-8 11-21 4-8h1l-1 18-4 23-6 21-6 11-8 10-15 13-14 9-16 8-15 6-20 6-14 2h-31l-12-2-23-7-25-12-15-10-10-8-12-12-5-9-6-17-6-31-1-7z" fill="#281215"/>
<path transform="translate(1047,863)" d="m0 0 3 1-9 8h-2v2l-12 9-14 10-15 10-26 16-4 1 1 3-3 1v2l-25 14-19 10-25 12-21 8-19 4h-9l-5-5-7-12-1-4v-11l4-7 5-5 5 1 9 4h15l18-4 30-10 26-12 17-9 27-15 2 1-8 5h-2v5l-2 1 5 1 14-8 18-10 11-6 12-8z" fill="#C2D2E7"/>
<path transform="translate(1070,545)" d="m0 0h12l6 4 4 5 2 5v12l-4 14-4 6-6 6-10 4-8 3h-18l-6-8-4-8 11-3 3-1-2-5-1-1h-39l-7 2 1 5 10 3-2 5-9 11h-13l-13-5-9-7-4-5-7-14v-10l4-11h2v-2h2v-2h2l1 2v6l7 1 10 4 13 1h53l14-1 16-4 6-1-1-7-14 1-14 2-21 2h-18l-25-4-12-2v-1h50l7-1z" fill="#FCBE9D"/>
<path transform="translate(921,619)" d="m0 0 7 4-4 3-142 28-240 47-4 3v24l4 3 21-3 285-47h6l-4 4-10 5-297 49h-9l-3-3-1-2v-34l4-5 91-18 132-26 108-21z" fill="#0B0505"/>
<path transform="translate(912,614)" d="m0 0 7 4 1 2-106 21-107 21-113 22-60 12-3 4v34l1 4h11l297-49 3 1-6 7-284 47-25 4-4 1v-59l42-8 280-55z" fill="#CC8F35"/>
<path transform="translate(1266,905)" d="m0 0h2l3 5 2 10v10l-2 10-8 11-10 9-27 18-20 13-24 13-23 13-5 3-17 6-30 10-5 2h-11l4-4h4v-2l7-4h3v-2h3v-2l3-1 1-2 3-1 1-2h3v-2h3l1-3 8-4 5-5 13-10 10-8 19-13 18-14 14-10 18-13 18-14 6-5 9-11z" fill="#C1D1E6"/>
<path transform="translate(697,750)" d="m0 0h9l3 3v45l-3 3-11 2-73 9-7-1-3-3v-42l4-4z" fill="#CC9733"/>
<path transform="translate(1346,739)" d="m0 0h11l75 9 5 4v44l-5 4-85-8-4-4v-46z" fill="#CC9733"/>
<path transform="translate(989,227)" d="m0 0h10l9 9-6-7v-2h17l-3 5 6-5h10l5 5v-3l2-1 12 1-2 5-5 6h-2v4l-11 14 5-5 7-9 5 5 8 12 5 6-7 7h-10l-11-1-5-6-6 1-1 4h-22l-3-3-6-2-2 4-2 3h-7l-3-1v2h-14l-2-2-6 1-5 8h-10l-10 1-5-4 2-6 15-24h2l2-6 5-9 4-2h10l3 1 3-3 14-1-4 7-4 5-2 2-11 16-5 8-4-2-8-10-3-4v3l7 8 4 5 4 1 7-10 9-13 6 4 10 13 5 1-4-2-9-12-6-5 2-4 9-12z" fill="#FDFDFD"/>
<path transform="translate(1143,1032)" d="m0 0 1 3-2 8-11 18-16 23-10 14-11 14-11 13-15 16-10 10-12 9-4 2-14 2-16 7-12-8 7-3 16-12 5-4h2v-2l11-9 13-12 7-8 7-7 7-9h2l2-4 2-3h2l2-4 7-10 9-14v-3l-15 15-5 4-10 13-9 10-9 11-14 14h-2l2-5 15-14 13-15 13-17 10-14 7-11 3-3-16 3-4-1 4-3 9-1 10-2 18-4z" fill="#C0D1E6"/>
<path transform="translate(1131,603)" d="m0 0h2v2l2 1-2 5-6 5-9 6-3 5-18 11-7 4 4-1h8l10 3 5 1 9-1 12 6 6 5 1 4 8 1 7 4 5 5 2 5 5 1v2l6 2 10 5 1 3 7 6 7 11-1 2-7-3v2h-2l-7-8-7-6-13-6h-7l-2-11-3-3-4-1h-7l-3 9-8 19-9 14-4 9-6 8-4 4-4 6-5 3-6 9-3 4 1-6 8-12 9-12 12-19 11-23 3-10v-12l-4-4-5-2-7 1-5 4-3 5-9 11-9 10-6 7-16 14-5 2-7 6-3 5-5-1 6-7 28-28 8-7 9-9 7-11-3-5-3-1h-8l-6 3-3 2h-3v2l-5 3h-3v2h-3v2l-12 8h-3v2h-3v2l-5 3h-3v2l-5 3h-3v2l-5 1v2l-5 1v2l-16 9-4 3h-3v2h-3v2l-5 3h-2v2h-3v2h-3v2l-4 2v-2l-4-1-3-2v-3l14-8 9-7 1-1-4-2 10-2 11-6 21-13 18-11 14-9 6-2v-5l-12 5-13 3-9-3-2-3 2-4 26-7 20-8 17-9 18-12z" fill="#0A0929"/>
<path transform="translate(1143,669)" d="m0 0h7l5 2 3 3 2 10h6l-3 3-4 15-11 25-5 13-12 23-14 24-11 17-3 3-3-4-5 5-6 5-2 5h-1l-2-14 6-4 4-8 1-3v-10l-4-8v-4l1-14 6-10 4-4h3l2-4 4-6 5-5 5-9 5-10 7-11 6-15 3-9z" fill="#C2D2E6"/>
<path transform="translate(1046,1250)" d="m0 0 9 1 7 5 3 4v2h2l6 18 2 19-1 17-3 13-5 11-7 8-4 3-7 1-8-3-6-7-6-12-3-12-1-7v-20l3-16 5-12 6-8z" fill="#190908"/>
<path transform="translate(1128,1460)" d="m0 0h11v2l4 1 8 9 6 16 2 19-1 19-4 16-3 6h-2l-2 5-5 6h-4v2h-9l-6-4-6-7-2-4v-4h-2l-3-9-1-6v-33l4-16 5-9 5-6z" fill="#1B0807"/>
<path transform="translate(1073,810)" d="m0 0 3 2-2 5-12 9-10 6-29 15-17 6-24 5h-28l-10 4-19 10-24 11-29 11-18 5-14 2-16 1h-21l-6-4-3-4v-19l13 4 11 2h24l22-4 24-8 21-9 36-16 7-2 8 1 17 4h18l24-5 20-8 20-13 10-6z" fill="#D46A4E"/>
<path transform="translate(1061,1072)" d="m0 0 2 1-11 12-12 12-5 4h-2v2l-4 3h-2l-1 3-10 8-12 10-21 14-17 10-15 8-3 1-40 1-11 3-10 6-7 6-17 2h-5l-4 4-9-1-6-1v-9l4-11 9 1h18l18-4 20-8 13-4 8-2 31-15 10-4 11-6 10-7 21-13 26-15z" fill="#FEFEFE"/>
<path transform="translate(1202,281)" d="m0 0h2l2 17 5 37 2 28 1 24 3 4 3 2-2 1v7l-8 20-6 17-1 2h-2l-2 5-5 1-2-1 3-9 10-26 1-2h-10l-13-5 7 17 1 7-2 1-9-17-4-5-3-1 3 10 4 7v3l-5 5-1 15h-1l-1-13-6-21v-8l2-4-1-6-3-6-3-4-3-1v4h-2l-8-28-5-5-11-4-10-7-2-2 10 2 16 5 19 7 20 10 13 8 7 5-2-16-10-9 4-1 4 4v2h2l-3-26v-14l-1-10 2-5 2-1-1-5-1-3 1-1z" fill="#09071F"/>
<path transform="translate(1201,747)" d="m0 0 6 1-1 7-13 27-11 17-9 14-12 17-8 11-9 11-12 13-7 8-11 11-6 7-8 7-11 11-8 7-10 9-25 20-19 14-14 10-20 13-24 14-31 16-21 9-25 8-26 5h-17l3-2-3-3v-3l3-1 20-2 24-6 29-10 33-16 23-13 20-12 15-10 18-13 13-10 17-14 14-12 12-11 13-12 12-12 7-8 11-12 11-14 16-21 12-19 10-15 15-26z" fill="#526B8F"/>
<path transform="translate(889,406)" d="m0 0h2v45l3 42 3 20 1 9h-2l-4-7v11l5 28 4 17 5 13 7 9 11 11 17 12 19 10 17 7 20 6 9 1h31l17-3 23-7 20-9 13-8 9-7 13-11 8-11 5-11 6-22 3-19 1-16-4 8-2-1 1-8 1-1 3-20 4-48 1-10 5-2 1 1v45l-4 36-2 20-6 31-5 15-6 11-9 10-15 11-18 11-17 8-19 7-20 5-6 1h-23l-16-2-25-7-8-4-7-3-10-4-6-4-3-1v-2l-5-1v-2l-5-2-7-5-3-1v-2l-4-2-8-7-7-10v-2h-2l-6-19-5-24-6-45-2-25-1-33 2-22 1-3h2l2-5z" fill="#F7F8FA"/>
<path transform="translate(1e3 309)" d="m0 0h28l31 3 28 4 26 6 7 2-1 7-2 2-18-2-21-4-30-3-2-1-37-1-24 1h-13v2l-29 4-32 7-4 2 3 2-9 4h-4l1-3-9 2-21 9-15 5v2h-2v2l-8 6-5 5-4 6h-2v-14l2-7 10-6 18-10 19-9 8-3 14-3 20-6 22-4 20-3 23-3z" fill="#F9FAFB"/>
<path transform="translate(1210,760)" d="m0 0h2l2 6 2 14v14 2l5 5 6 16 1 7 2-1 1-7h1l2 8 3 3-10 14-20 20-10 8-5 6-8 7-10 9-8 7-13 12-14 11-18 13-20 16-12 8-19 14-2-1 12-11 8-7 12-9 11-9 9-8h2v-2l11-9 9-9 8-7 18-18 8-7 6-7 5-5 5-6h2l2-4 7-10 4-9 2-9 1-14 2-6-1-1-1 4-13 18-8 12-15 20-7 10-11 14-9 10-8 8-7 8-14 14-2-1 8-10h2l2-5 9-10 10-13 9-12 9-13 12-17 9-14 13-22 5-11 4-15z" fill="#C3D3E7"/>
<path transform="translate(1216,1008)" d="m0 0h10l6 5 1 11-4 20-2 4-5 5-4 7-5 13-12 22-10 13-6 7h-3v2l-9 4h-6l-5-4-1-3v-8l5-8 11-11 8-13 5-14 3-12 2 3 1 4v-12l-3-16-2-7 19-10z" fill="#FDBF9F"/>
<path transform="translate(964,645)" d="m0 0 4 1 18 6 18 4 8 1h19l24-4 17-5 6-2v5l-16 9-15 10-22 13-13 8-10 4 1 2-7 5-12-3-12-5-10-6-4-6-1-9 2 1 4-1z" fill="#C24C39"/>
<path transform="translate(845,916)" d="m0 0 2 1 3 5v2l5 2 6 3 8 1-4 2-7 2h-6l-5-3-4 1-6 7-1 3v11l3 7 8 14 3 3v6l-9 1-3 5-1 2v11l5 13 5 7v2l5 1-3 1 3 5 2 2h-9l-9-6-7 14-1 3v12l4 5 5 2-4 3-4 1 1 8 6 14 8 11 11 7 17 3 2 5 7 3v1h-16l-11-1-2-1-1 11-1 9v15l3 5v4h-7l-3-1-3 11-1 9h-8v-9l3-12 4-8 3-20 1-8v-11l-9-11-7-11-5-12-3-12v-19l4-12 7-12 2-3-1-8-2-6-1-10 2-10 5-11-3-9-4-8-1-4v-10l4-10 6-10 5-6z" fill="#070729"/>
<path transform="translate(1085,234)" d="m0 0h10l4 1v2l7 1 17 4 6 2v2l9 1 10 4 19 10 6 7v15l4-8 1 2 1 5 7 15-3-1-5-10-1-3-5 10v7l1 3 3-6 2-1-1-6 1 3 4 2 4 5v4h2l1-4v15l-4 1v9l-1 10-6-2-12-6-8-6-6-3 4-1 1-4-4-5-4-12-1-2h-2l-8 11-2 5 1 3h-5l2-6 9-12 2-6 3-3 5-11v-11l-2-6-5-2-2 2-2-3-5 5-1 6-3-1-3-13-2-6-5-1-7-2-4 4v-4l-9-2 4 9 4-2-3 6 12 20-1 2-10-15v-2l-5 2-7 8-3 3h-3l-11-17-2-4-8 7-4 2 3-5 3-3 2-5h-2v-2l8-5 3-4h2z" fill="#A0B6D3"/>
<path transform="translate(857,249)" d="m0 0 5 1 1 2-6 9h-2l-3 10-4 11-5 29-3 28-1 20-1 5-1 14 6-4 14-9 16-8 15-6h3l-2 5-6 5-22 11-1 3-6 1-11 8-6 8h-2v3h-2l4 10 4 11 4 9 3 9v2h2l4 6 6 4 6 8-1 4-7 2-7-4h-12l-8 5-6 9-3 8-2 12-2 3-2 4-3-1-1-3v-10l4-13 6-11 8-9 11-6-4-12-4-11-4-15-2-3-3-1-1-5 5-10 1-32 2-25 6-41 4-18 8-16 3-4z" fill="#080627"/>
<path transform="translate(999,868)" d="m0 0h6l-4 3-19 12-25 14-17 9-29 12-25 8-14 3h-14l-8-5-4-7 5-2 15-3 32-12 22-10 15-7h2v-2l17-9 30-1z" fill="#A0B6D3"/>
<path transform="translate(1078,340)" d="m0 0h11l26 4 25 7 6 3 3 4 8 28 3 11-1 9-2 16-1 10-2-2-5-37-5-25-5-6-14-6-18-4-14-1-8 2-10 6-15 10-14 6-15 4h-28l-21-6-17-6-8-6-9-11-11 1-22 5-12 5-8 6-4 4 1-8 2-7 8-5 19-6 16-4h8l10 11 14 9 12 5 12 3h27l21-5 17-7 13-9z" fill="#D3674C"/>
<path transform="translate(1210,722)" d="m0 0 21 2 33 4 5 2 2 3v47l-5 4-35-3-6-21-6-12-7-10z" fill="#CC9633"/>
<path transform="translate(1261,905)" d="m0 0h5l-4 6-7 8-14 11-17 13-14 10-19 14-15 11-17 12-13 11-8 6h-2l-1 3-8 4-1 2h-3v2h-3l-1 3h-3l-1 3h-3v2h-3v2l-8 4h-2v2l-7 3h10l8-3 22-7 3 1 5 2-1 4-22 7-21 5h-8l-10 4-7 4h-2v2l-5 1v2l-5 1v2h-3v2l-7 2v2l-5 1v2l-11 5h-2v2l-10 5-10 4-4 3-9 2-4-1h-7l-14 5h-2v-2l28-11 38-19 24-14 19-12 13-9 15-11 13-9 21-16 10-8 12-8 14-11 15-10 13-9 18-13 19-14 11-10z" fill="#0C0E2B"/>
<path transform="translate(1238,805)" d="m0 0 70 6 12 2 10 5 8 9 4 11v339l-6-1-1-335-3-9-6-8-8-4-15-2-57-5-6-1-2-4z" fill="#CC9633"/>
<path transform="translate(969,375)" d="m0 0h16l8 5 3 5v12l-4 6-2 2-36 3-29 6-19 7-4 1-3-6v-9l5-10 7-7 8-4 16-5 13-3z" fill="#090404"/>
<path transform="translate(1197,454)" d="m0 0 10 1 6 4 6 7 4 8 3 13v9l-4 16-7 14-8 10-8 7-12 7-9 2-1 1h-10l-2-1 1-9 2-8 2-2 9-1 10-5 7-6 12-18 2-6v-11l-3-6-3-4h-7l-8 7-13 18-3 1-1-7 2-18 4-10 8-8z" fill="#FDBF9E"/>
<path transform="translate(839,455)" d="m0 0h12l10 6 7 7 3 5 2 14v14l-7-6-1-5h-2l-7-8-9-6h-6l-3 4-1 3v17l4 9 5 5 7 9 8 6 7 3 8 1 3 9 1 10-2 1h-11l-11-4-11-7-10-10-9-16-4-11-2-12v-8l2-10 6-12 7-6z" fill="#FBBB9B"/>
<path transform="translate(1061,375)" d="m0 0h20l17 3 16 4 13 5 11 8 5 7 1 3v12l-3 5-5-1-11-6-25-6-15-2-29-2-5-5-1-3v-13l6-7z" fill="#030101"/>
<path transform="translate(1054,404)" d="m0 0 31 2 25 4 17 5v3l10 12 3 6v9l-2 2-5 1-6-3-12-14-9-6-10-4h-11l-10 4-9 6-7 10-6 12-5 6v16l5 17 4 13v3h-2l-5-14-7-10-2-13-3-31v-9l2-10 5-10 4-5z" fill="#C24C39"/>
<path transform="translate(991,216)" d="m0 0h52l28 4 24 5 13 4 2 3-2 4h-9l-33-7-16-2-17-1h-37l-34 3-39 10-8 5h-3l-1 6-3 5-1 3-7 14-8 13-4-3-5-10 3-4h2v-3h-5v-4l-1 2h-2l-1 5-3-3-3-6 4-6 5-5 10-4 16-8 11-5 29-8 23-4z" fill="#FDFDFD"/>
<path transform="translate(1013,327)" d="m0 0h19l29 2 30 4 29 6v2l5 2 7 5-2 1-20-5-21-3h-11l-8 9-14 9-18 7-10 2-2-6 4-5-14 3h-25l-9-2-12-6-12-9-1-2 5 2 9 6 11 5 15 3h15l16-3h4v-2l21-8 11-6-4-3-3-2-11 1-4 4-14 7-10 3-9 1h-18l-14-2-1-2 9-2 1-3-3 1-14-2v-2l-7 1 3-3h3l2-4 8-2z" fill="#07051E"/>
<path transform="translate(1240,812)" d="m0 0 18 1 56 5 9 3 7 6 5 9v340h-5l-1-333-3-9-5-5-6-3-29-3-35-3-6-2-5-4z" fill="#030101"/>
<path transform="translate(974,405)" d="m0 0h15l6 3 8 9 4 8 2 16-2 7-5 1-7 4h-3l-4-10-7-10-8-7-9-4h-14l-12 5-9 6-9 10-5 6-6-2-2-4 1-9 5-9 3-6 3-3 3-2 26-6z" fill="#D46A4E"/>
<path transform="translate(1266,905)" d="m0 0h2l3 5 2 10v10l-2 10-8 11-4 3-2-1 8-16 1-9-1-7-1-2-4 2-1 2-1 7-4 9-9 10-10 9-6 4h-2v2l-5 3h-2v2l-18 11-14 8-18 10-19 10-5 1 6-7 7-7 11-9 16-16 18-14 17-12 12-9 17-13 6-5 9-11z" fill="#FAFBFC"/>
<path transform="translate(1074,679)" d="m0 0 5 1-1 4-8 8-8 7-13 12-17 13-10 8-5 3-3 5-16 8-5 2v-15l-5-13-2-3 3-1v-2h3v-2h3v-2l12-4 16-8 18-8 12-6z" fill="#FCFCFD"/>
<path transform="translate(1130,1066)" d="m0 0h3v6l-12 17-7 10-7 8-1 3-2 1-2 13-2 6v11l4 10v7l2-1 27-1 18 2v1h-44l-11 3-2 4-6 3-4 1-8-4h-6v-2l-13-2-13-1 5-4 13-11 14-14 7-8 12-14 9-12 13-18 9-13z" fill="#0A0C29"/>
<path transform="translate(880,361)" d="m0 0 3 1-3 9-5 13-8 10-5 5h-2l-3 9-3 11v6l8-17 4-5 4-3h2v7l-1 5-1 20v25l-5-3-6-8-5-3-4-5v-2h-2l-7-19-3-6-4-10-1-6h2v-3h2l2-4 5-6 10-7 4-1 2 1 1-4 14-7z" fill="#281215"/>
<path transform="translate(947,744)" d="m0 0 1 3-8 19-8 17-5 21-7 3-18 4-21 2h-15v-2l7-6 7-8 11-11 7-5 3-3 6-4 1-2 3-1 5-5 12-9 9-6h3v-2l6-4z" fill="#F8F9FB"/>
<path transform="translate(1243,1046)" d="m0 0 1 2 5 1 3-1-3 11-8 16-8 12-9 11-11 11-16 11-2 1v18l2 31-1 7-6-4-5-1 1-2v-17l-1-9v-19l-10 5h-12l-4-2v-2l-4-2-3-9v-6h2l2 4h3l1-8h1l2 12 4 3 9-1 6-2v-2l5-3 10-13 8-13 9-17 5-13 5-5 2-1-3 10-4 9-8 15-8 16-6 9 7-4 10-9 12-15 7-10 8-18z" fill="#0D071D"/>
<path transform="translate(1117,1053)" d="m0 0h10l-2 5-7 9-7 10-4 7h-2l-2 4-12 16-13 16-9 10-8 7-13 12-10 8-8 5h-2v2l-16 7-6-4 1-3 11-7 8-7 10-8h2v-2l8-7 23-23 7-8 11-13 12-17 10-14 4-4z" fill="#FDFDFD"/>
<path transform="translate(1095,650)" d="m0 0h8l5 3 2 4-7 11-16 16-8 7-27 27 4 1 2-5 9-7 4 1-12 11-3 4h-8l-10 3-20 11h-2l1-3 14-10 16-13 8-7 10-9 13-12v-3l-8 1-19 7-49 23-5 1 2-3h3v-2h3v-2l9-5 12-7h2v-2l5-1v-2l5-1v-2l6-3h2v-2l6-3h2v-2h3v-2l8-4 5-4h2v-2h3v-2l6-3h2v-2l6-3z" fill="#C2D2E6"/>
<path transform="translate(889,406)" d="m0 0h2v45l3 42 3 20 1 9h-2l-4-7v11l5 28 4 17 5 13 7 9 11 11 17 12 8 5v2h2v2l-4-1-7-3v-2l-5-1v-2l-5-2-7-5-3-1v-2l-4-2-8-7-7-10v-2h-2l-6-19-5-24-6-45-2-25-1-33 2-22 1-3h2l2-5z" fill="#F5F6F9"/>
<path transform="translate(1014,321)" d="m0 0 37 1 2 1 30 3 21 4 16 2v2l8 1 8 2v2l7 1 15 6 6 3-1 2-11-1-18-6-27-7-29-5-29-3-17-1h-19l-35 2-32 4-33 9-30 11-16 7-12 6-15 10 1-4 4-2 2-4 7-6h2v-2h2v-2l10-5 9-3 20-8 7-1-2 4 12-4-7-1 3-2 19-5 31-6 8-1h9v-2z" fill="#526B8F"/>
<path transform="translate(818,732)" d="m0 0h4l-5 25-11 25-3 7-10 2h-8l-3-3-1-3v-43l4-5z" fill="#CB9433"/>
<path transform="translate(1077,745)" d="m0 0h9l4 4 2 6v12 4l4 8v10l-4 9-5 5-3 1 2 5-1 5-2 5-4-1v-2h-2l-2-6-7 1-16 7-10 5-17 6h-3l1-5 12-7h3l1-3 9-3 19-10 16-8 2-3v-11l-2-1-9 1-28 14-17 8-8 3h-3l1-5 15-9 6-4h4v-2l3-2 9-3 23-12 3-3 1-10-5-4z" fill="#090821"/>
<path transform="translate(1141,1113)" d="m0 0 4 2 12 19 6 9 1 5v12l-13-1-18-2-29 1-2-10-1-7 7-1 10 4 9 7 1-3-4-2-6-4 1-6 6-8h2l2-4 7-8z" fill="#FDFDFD"/>
<path transform="translate(989,227)" d="m0 0h10l9 9-6-7v-2h17l-3 5 6-5h10l5 5v-3l2-1 12 1-2 5-5 6h-2v4l-11 14-2 5-2 1-5-5-7-10-2-1-3-5-5 8h-2l-2 5-2 3h-2v2l-5 1-7-9-6-7-3-2 2-4 9-12z" fill="#FDFDFD"/>
<path transform="translate(1113,680)" d="m0 0 4 1-1 4-3 7-8 16-7 10-15 20 1 5-13-2-4-9-4-5-7-3 1-4 15-15 13-12 10-6 11-5z" fill="#FCFDFD"/>
<path transform="translate(1231,816)" d="m0 0h1l2 8 3 3-10 14-20 20-10 8-5 6-8 7-10 9-8 7-13 12-14 11-18 13-20 16-12 8-19 14-2-1 12-11 8-7 12-9 11-9 9-8h2v-2l11-9 9-9 8-7 18-18 8-7 6-7 9-9 5-1 8-6 7-7 7-8 9-10 3-4z" fill="#A4BAD6"/>
<path transform="translate(993,212)" d="m0 0h49l37 5 23 4-1-4 10 2 19 7 18 10 16 12 14 12 5 5-1 2-6-3-3-3-7-4v-2l-5-2-19-11-15-7-17-6-11-2-23-5-24-4-9-1h-52l-33 5-25 6-19 6-17 8-11 6-5 2-4 2 5-6 22-12 14-7 25-7 19-4z" fill="#A8BDD8"/>
<path transform="translate(1047,863)" d="m0 0 3 1-9 8h-2v2l-12 9-14 10-15 10-26 16-16 8-13 6-13 5-10 3-13 3-16 2v-2l25-12 26-12 32-16 19-10 21-12 15-8 12-8z" fill="#FDFDFD"/>
<path transform="translate(1074,810)" d="m0 0 3 1v6l-4 6-8 6-28 15-17 8-21 7-17 3-30 1-14 8-15 8-23 10-10 5-10 3-8 3-15 4-8 2-9 1h-28l-9-2-6-4-4-4 1-3 7 6 2 1h21l24-2 21-5 27-10 27-12 28-14 3-1h28l24-5 19-7 33-17 13-10 4-4z" fill="#F9BD9E"/>
<path transform="translate(901,1025)" d="m0 0 3 1-3 3-26 9-2 6 1 7 1 3-3 3-15 4-5 1h-20l-5-6v-12l4-9 5-8 4 2 5 3 4 1h17l26-5z" fill="#C2D3E7"/>
<path transform="translate(939,236)" d="m0 0h7l-1 5-8 13-7 11-9 17-1 3h-2l-2 6-8 16-3-3v-2h-2v-3h-2l-2-4v-3h14v-2l-6 1h-11l-2-1 3-9 11-21 5 5 8 10-2-5-10-12 3-7 5-8 8-4h8l2 5v-3-4z" fill="#FDFDFD"/>
<path transform="translate(1126,646)" d="m0 0 7 1 11 8 1 4 8 1 7 4 5 5 2 5 5 1v2l6 2 10 5 1 3 7 6 7 11-1 2-7-3v2h-2l-7-8-7-6-13-6h-7l-2-11-3-3-4-1h-7l-3 9-8 19-9 14-4 9-6 8-4 4-4 6-5 3-6 9-3 4 1-6 8-12 9-12 12-19 11-23 3-10v-12l-4-4-10-5 1-5z" fill="#080627"/>
<path transform="translate(1078,340)" d="m0 0h11l26 4 25 7 6 3 3 4 8 28 3 11-1 9-2 16-1 10-2-2-5-37-5-25-5-6-14-6-18-4-14-1-8 2-10 6-9 6-2-1 1-2-1-2h-6l1-4 11-7z" fill="#C34E3A"/>
<path transform="translate(1171,1019)" d="m0 0 4 1 2 2 6 1-1 27-2 9-4 7-6 5-2 1h-9l-6-5-1-2v-18l3-19 10-6z" fill="#D4694E"/>
<path transform="translate(807,1761)" d="m0 0h10l1 1v41l-1 1h-11l-12-16-1 14-1 1h-10l-1-2v-38l1-1h10l3 3 10 16 1-19z" fill="#F6F8FB"/>
<path transform="translate(541,773)" d="m0 0h6l4 3v42l-4 3-23 3v-48z" fill="#CC9733"/>
<path transform="translate(1502,757)" d="m0 0 16 1 6 1v50l-21-2-5-5v-41z" fill="#CC9634"/>
<path transform="translate(945,736)" d="m0 0h5l-1 11-2-2-5 4h-2v2l-9 5-11 8-6 5h-2l-1 3h-3l-1 3-6 4h-2l-2 4-9 7-13 13-7 8h-2v2h6v1l-14-1-1-3 4-7 9-10 5-6 5-22 3-15 2 1 4 16 1 9 8-7 20-14 17-12z" fill="#08082A"/>
<path transform="translate(965,1126)" d="m0 0 2 1-16 10-16 8-23 12-5 2 1 2-11 3-10 6-7 6-17 2h-5l-4 4-9-1-6-1v-9l4-11 9 1h18l18-4 20-8 13-4 8-2 31-15z" fill="#C3D3E7"/>
<path transform="translate(922,1759)" d="m0 0h14l9 4 5 5 4 6 1 8-3 10-7 7-7 4-4 1h-12l-1-2v-42z" fill="#F7F9FB"/>
<path transform="translate(1076,251)" d="m0 0h2l7 10 7 11-1 4-4 2h-3l1 4-1 3h2l2-5 3-3 3 1 5 9 5 13v5h-7l-24-5v-4l1-2h-2l-5-9-3-9-3-3-7 2 2-4 6-5 3-4 5-5zm5 35 1 4 1-3z" fill="#C2D2E6"/>
<path transform="translate(1125,324)" d="m0 0 9 1 23 7 20 9 16 10 11 10 1 7v9l-4-2-11-7-25-13-10-4v-2l8 1-12-6-15-5v-2l-12-2-4-2 2-2 2-3z" fill="#9FB5D2"/>
<path transform="translate(1183,1023)" d="m0 0h5l3 14 1 7v12l-5 16-7 12-9 10-7 8-3 4-1 7-4 1-3-5 1-7 4-8 10-11 4-3-3 1h-11l-8-4-6-8-1-7 5-1 2-11 2-1 1 16 4 5 2 1h9l6-4 4-5 2-5 1-7 1-21z" fill="#07051E"/>
<path transform="translate(1139,695)" d="m0 0h3v6l-5 13-15 30-8 11-9 13-6 8-3 2-6-8 1-3 1-14 6-10 4-4h3l2-4 4-6 10-10 10-16 6-7z" fill="#FCFDFD"/>
<path transform="translate(1097,1706)" d="m0 0h11l5 1 3-1h11l6 5 2 5v23h-10l-1-1-1-19-5-2-1 21-1 1h-10l-1-19-1-2h-4l-1 2-1 19h-10l-1-1v-31z" fill="#F7F9FB"/>
<path transform="translate(1020,865)" d="m0 0 4 1-14 7-19 13-26 14-16 9-17 8-16 7-25 8-18 4h-15l-3-2 10-3-4-2 16-2 19-5 23-8 27-12 24-13 17-10 16-10v-2l9-1z" fill="#526B8F"/>
<path transform="translate(862,1692)" d="m0 0h10l1 1v48l-1 1h-15l-7-3-5-5-3-9 1-9 6-9 6-3 6-1z" fill="#F7F9FB"/>
<path transform="translate(1067,1756)" d="m0 0h10l1 1v48l-1 1h-16l-6-3-6-7-2-10 3-9 6-7 10-3z" fill="#F8F9FB"/>
<path transform="translate(1261,905)" d="m0 0h5l-4 6-7 8-14 11-17 13-14 10-19 14-15 11-17 12-13 11-8 6h-2l-1 3-2-1v-1h-6l-1-3 16-12 10-8 12-8 14-11 15-10 13-9 18-13 19-14 11-10z" fill="#4F688C"/>
<path transform="translate(987,1090)" d="m0 0h7l6 2-2 2-26 10-18 6-25 6-20 3-11 1h-30v-1l9-1-5-4v-4h-8v-1h44l29-5 29-8 10-2z" fill="#51698D"/>
<path transform="translate(989,455)" d="m0 0h5v7l-7 8-8 5-18 6h-21l-8-2-10-4-7-5-3-5v-6l2-3 4 1 10 6 14 3h11l14-2 13-4z" fill="#07051E"/>
<path transform="translate(1025,266)" d="m0 0 4 1 4 5 24 2-4 8-7 8h-2l1 4 9-2h9l3 5h-14l-20-1v-2h9l-8-16-4-7h-5l-8 11-4 7h-2l3 4v2l-11 1h-14l2-2 17-1-1-5-7-9-3-7-5-1-7 10-7 12-1 3 3 1v1l-11 1 3-3-1-5-10-13 2-4 14 1v-2l10 1 2-4 2-3 6 1 3 2v2l22-1 1-3z" fill="#C3D3E7"/>
<path transform="translate(971,379)" d="m0 0 11 1 8 3 2 2v3l-4 2-2 3-37 5-18 2-11 4-9-1-5 5-2 1 1-6 6-8 14-7 19-5z" fill="#422321"/>
<path transform="translate(879,274)" d="m0 0 7 7 1 5 5 2-2 4v3l4-3 6 7v2h2l6 9v2h-6l-3-3h-6l-9 10-5 3 2-9-3 6-2 1-1 3h-2l-3-5h-3l-1-1-2 4-4-1h-3l-1-2 5-10h2l1-4 4-9 4-11h2l2-6z" fill="#C3D3E7"/>
<path transform="translate(1117,1040)" d="m0 0 4 1-8 11-6 11-10 13-10 14-12 14-14 15-21 21h-2v2l-17 13-10 8-6 3-5-2 4-2 11-8 13-10h2v-2l11-9 13-12 7-8 7-7 7-9h2l2-4 2-3h2l2-4 7-10 9-14v-3l-15 15-5 4-10 13-9 10-9 11-14 14h-2l2-5 15-14 13-15 13-17 10-14 7-11 3-3-16 3-4-1 4-3 9-1 10-2z" fill="#B0C4DD"/>
<path transform="translate(1053,454)" d="m0 0 5 1 20 8 15 3h11l12-2 13-7 4 1 1 1-1 7-7 8-12 6-4 1h-20l-16-5-12-6-10-9z" fill="#06051E"/>
<path transform="translate(954,639)" d="m0 0 5 1h7l19 4 8 2v-4l22 3h29l-1 4 2 2 8 2-3 2-19 3h-19l-18-3-18-5-12-5v29l-6 1v-2h-2l-1-15 2-7 2-3v-6h-4z" fill="#09061E"/>
<path transform="translate(1061,380)" d="m0 0h23l19 3 13 4 13 7 8 7 3 6v2l-6-2-9-4-15-4-41-4-5-2v-2l-10-1v-6z" fill="#422321"/>
<path transform="translate(1210,1691)" d="m0 0h10l1 1v17h7l8 4 3 4 1 5v20l-2 1h-9l-1-3v-14l-2-4-5-1v22h-12v-51z" fill="#F4F6F9"/>
<path transform="translate(1054,404)" d="m0 0 26 2v1h-22l-3 9-2 5v6l4 5 1 2v9l-5 10-5 6v16l5 17 4 13v3h-2l-5-14-7-10-2-13-3-31v-9l2-10 5-10 4-5z" fill="#D46A4E"/>
<path transform="translate(1102,1057)" d="m0 0 1 3-6 10-9 13-5 7h-2l-2 4-2 3h-2l-2 4-12 13-13 14-16 14h-2v2l-16 12-10 7h-7l-2-2 14-10 5-5 6-5 3-1 4-5 8-7h3l2-4 13-13 9-11 10-11 10-13 12-11z" fill="#F8FAFB"/>
<path transform="translate(1053,332)" d="m0 0 5 1 9 4-4 3-17 8-11 4h-3v2l-20 4h-15l-15-3-16-8-6-4 2-5 7-1v2h8l9 1v2h10v1l-16 2-3 1 14 2h18l13-2 15-6 7-4-4-2z" fill="#190707"/>
<path transform="translate(1073,1695)" d="m0 0h8l1 3v26l-4 10-5 5-4 2h-10l-5-3-4-5-3-10v-22l1-5 10 1 1 1v26l3 5 5-1 3-6v-26z" fill="#F8FAFC"/>
<path transform="translate(1044,503)" d="m0 0 4 2 2 5-1 7-4 6-3 3-9 4-5 1h-9l-10-3-9-5-4-10-2-1 2-4 3-2 14 4h6l1-1 12-2z" fill="#C24C39"/>
<path transform="translate(1467,756)" d="m0 0 6 1 12 13 3 4-1 7-10 11-4 5-5 1-5-3-12-14-1-7 10-11 5-6z" fill="#CB9534"/>
<path transform="translate(1305,739)" d="m0 0h6l8 8 8 10-1 7-12 13-3 3h-6l-5-5-10-11-1-7 12-14z" fill="#CC9534"/>
<path transform="translate(742,747)" d="m0 0h5l9 9 7 9v6l-11 12-4 5h-7l-8-8-7-9-1-5 7-9 8-9z" fill="#CC9534"/>
<path transform="translate(578,769)" d="m0 0h6l9 9 7 9-1 7-11 12-4 4h-6l-8-8-8-10 1-6 12-14z" fill="#CC9534"/>
<path transform="translate(812,1695)" d="m0 0h24l1 1v11h-14v8h9v10l-1 1h-8v4h14v11h-26v-45z" fill="#F6F8FB"/>
<path transform="translate(1150,360)" d="m0 0 7 3v-2h6v2l-3 1 1 5 7 16 7 6h7l18 10h2l3 4v2l2 1h-11l-13-5 7 17 1 7-2 1-9-17-4-5-3-1 3 10 4 7v3l-5 5-1 15h-1l-1-13-6-21v-8l2-4-1-6-3-6-3-4-3-1v4h-2l-6-20z" fill="#150504"/>
<path transform="translate(913,1691)" d="m0 0h9l2 1v18l6-4 3-3 4 2 4 5v3l-8 7-1 4 7 7 2 3-1 4-5 5-4-2-5-5v-2h-2v5l-1 1h-10z" fill="#F9FAFC"/>
<path transform="translate(1185,1704)" d="m0 0 8 1 6 4 4 5 1 3v10l-4 7-6 5-4 1h-7l-7-4-4-5-2-4v-10l5-8 7-4z" fill="#F8F9FB"/>
<path transform="translate(835,1769)" d="m0 0h10l7 4 4 6 1 3v8l-3 7-7 6-11 1-6-3-5-5-2-4v-12l6-8z" fill="#F9FAFC"/>
<path transform="translate(1096,1769)" d="m0 0h10l7 4 4 6 1 10-3 7-7 7-11 1-8-4-5-8-1-8 3-8 7-6z" fill="#F9FAFC"/>
<path transform="translate(1183,403)" d="m0 0 9 3 14 2-3 9-8 22-4 7-8 5-8 6-1-3v-24l4-5h2l-6-13-1-7 4 1 7 10 6 11-1-7-5-12z" fill="#281215"/>
<path transform="translate(1199,485)" d="m0 0 5 2 5 7 2-1-1 7-4 8-10 14-10 8-11 4h-5l-2 1 1-10 3-9 9-2 4-4 5-13 7-11z" fill="#C14D39"/>
<path transform="translate(1163,362)" d="m0 0 6 1v2l5 1v2l6 2 10 6 10 9 8 10 2 3-1 5-2 3-4-2-5-3-16-9h-7l-8-7-8-18 1-4z" fill="#261013"/>
<path transform="translate(962,1706)" d="m0 0h13l2 2v31l-1 1h-11l-10-2-6-5-2-4v-11l4-7 7-4z" fill="#F8FAFC"/>
<path transform="translate(1255,1770)" d="m0 0h13l1 1v33h-11l-9-1-6-4-3-5-1-9 3-8 5-4z" fill="#F9FAFC"/>
<path transform="translate(1105,228)" d="m0 0 8 1 21 8 19 10 13 8v2l5 2 5 3-4 1 7 8 4 4 7 22v17h-1l-1-10h-2l-1 2v-6l-5-6h-2l1 3h-3l-2 9-2-3-1-3v-7l5-11 2 1 4 10 3 3-8-15v-5l-4 9h-1v-17l-5-6-23-12-9-3-6-1v-2l-9-2-21-5v-1h9l1-5z" fill="#C2D2E6"/>
<path transform="translate(1243,878)" d="m0 0 1 2-9 11-11 13-8 8-9 11-7 8-5 5-8 9-3 5-12 14-7 9-7 6-12 8-4 5-6 1-1-3 28-28 7-8 9-8 15-15 9-12 12-13 11-14 9-11 5-1z" fill="#A2B8D5"/>
<path transform="translate(969,924)" d="m0 0 4 1-1 3-26 16-7 3-9 3-4 3h-2l-2 4-16 8-18 8-19 7-7 2-12 1-2-7-2-3h11l19-4 16-6 18-8 30-15 24-14z" fill="#526A8E"/>
<path transform="translate(969,549)" d="m0 0 6 2 4 2 28 3 19 1 13-2 24-2 8-2 3-1h8l1 6-8 3-14 3-14 1h-53l-13-1-10-4-7-2 1-5z" fill="#2E1311"/>
<path transform="translate(1139,1768)" d="m0 0 9 2 5 6 1 5v21l-1 1h-10l-1-1-1-23-3-1-3 3-1 22h-11v-32l1-1z" fill="#F6F8FA"/>
<path transform="translate(1267,958)" d="m0 0 2 1-2 6-8 13-4 6 1 17v27l-3 18-4 4-1-2h-4l1-12v-39l-2-19v-3l1-1h5l4 2 5-5 3-5 4-6z" fill="#0A061E"/>
<path transform="translate(1171,1771)" d="m0 0h7l6 4 3 7 1 9-1 2-4 1 3 2-2 6-6 4h-9l-6-4-3-4-1-3v-11l4-8 5-4z" fill="#F4F5F8"/>
<path transform="translate(940,198)" d="m0 0 4 1-1 2-6 3-9 8-11 4-19 10-18 11-14 12-4 2-5-1-4 1 4-6 9-9 16-12 22-12 20-9z" fill="#080721"/>
<path transform="translate(833,417)" d="m0 0 2 3 5 12 4 2v4h2l5 5 5 1 4 2 6 8-1 4-7 2-7-4h-12l-8 5-6 9-3 8-2 12-2 3-2 4-3-1-1-3v-10l4-13 6-11 8-9 11-6-4-12-4-11z" fill="#060621"/>
<path transform="translate(1028,1768)" d="m0 0 9 2 4 5 1 3v25h-11l-1-25-5 1-1 1-1 23h-11v-33z" fill="#FBFBFC"/>
<path transform="translate(989,227)" d="m0 0h10l9 9 3 2 3 5 13 18 3-1-2 4-4-2-8-12-3-2-3-5-5 8h-2l-2 5-2 3h-2v2l-5 1-7-9-6-7-3-2 2-4 9-12z" fill="#FAFBFB"/>
<path transform="translate(977,324)" d="m0 0h7l-4 1v2l14 1v1l-26 2-22 3-33 9-30 11-16 7-12 6-15 10 1-4 4-2 2-4 7-6h2v-2h2v-2l10-5 9-3 20-8 7-1-2 4 12-4-7-1 3-2 19-5 31-6z" fill="#526B8F"/>
<path transform="translate(840,476)" d="m0 0 3 3 1 3 4 2 9 9 6 8-3 10v9l3 10-5-2-9-8-6-9-5-5-2-6v-17l3-6z" fill="#C24D39"/>
<path transform="translate(913,1209)" d="m0 0h1v40h22l2 2v145h27v-146h2v146l-3 2h-27l-1-1v-146h-21l-2-1-1-3v-32z" fill="#654044"/>
<path transform="translate(841,475)" d="m0 0h6l9 6 7 7v2h2l3 6 4 4 1-7h1l2 19 1 17 1 2v9h-1l-1-6-11-2-3-3-3-9v-9l3-10-9-11-7-7h-3l-2-5z" fill="#2A1315"/>
<path transform="translate(1061,375)" d="m0 0h20l17 3 16 4 13 5 11 8 5 7 1 3v12l-3 5-5-1-8-4-1-4 2-2 7 1v-3l1-2 3 2-5-9-9-7-15-7-19-4-8-1h-23l-6 3-1 6 10 1v2l16 2v1l-19 1 2 2v4h-7l1-7-4-1-2-6h-1v-5l6-7z" fill="#0F0707"/>
<path transform="translate(1010,333)" d="m0 0h12l17 1 6 1-3 3-14 7-10 3-9 1h-18l-14-2-1-2 9-2 1-3-3 1-12-2 2-2 5-1 23-2z" fill="#432422"/>
<path transform="translate(1099,409)" d="m0 0 11 1 17 5v3l10 12 3 6v9l-2 2-5 1-6-3-12-14-9-6-6-3 1-5 3-2 1-3-6-2z" fill="#D46A4F"/>
<path transform="translate(1145,1246)" d="m0 0 6 1 8 7 4 11v9l-3 11-3 6-6 8-5 2-1-1z" fill="#231518"/>
<path transform="translate(733,1210)" d="m0 0 65 1v1h-63l-1 191h63v-46h-35l-1-1v-17h22v1h-21v15h35l1 1v48l-1 1h-64l-1-2v-192z" fill="#57444F"/>
<path transform="translate(1055,228)" d="m0 0 11 3 4 6v-5l13 2v3l-4 5-5 3h-2v2h2l-2 6-8 9-1 2-4-1-14-20 2-5z" fill="#FCFDFD"/>
<path transform="translate(878,248)" d="m0 0 2 1-4 6-2 5 3 5v9l-3 6v4h-2l-3 11-4 9-3 3-3 1-2 4h-2l1-4 2-2-4-4-1-6 2-1 3 5-1-4-1-1v-10l1-13 7-10 5-4 7-8z" fill="#BFD0E5"/>
<path transform="translate(878,1708)" d="m0 0h11l1 16 1 4 3-1 1-18h11l1 1-1 21-4 6-3 3-3 1h-8l-5-3-4-5-1-5z" fill="#F8FAFB"/>
<path transform="translate(1023,1455)" d="m0 0 5 1 6 4 5 8 1 3v17l-3 9h-2l-2 5-2 4-4 2-1 2h-3z" fill="#210D0C"/>
<path transform="translate(993,1703)" d="m0 0 9 1 4 3-4 9-7-1 9 6 3 4v10l-5 6-3 1h-9l-7-4-2-4 7-5 8 3-1-3-10-5-3-4v-8l3-5 4-3z" fill="#F8F9FB"/>
<path transform="translate(1204,1767)" d="m0 0 8 1 4 2-1 6-2 4h-7l8 4 4 6v8l-4 6-4 2h-10l-6-4-2-3 5-5 3-1 2 2 5 1-1-3-10-5-3-4v-9l4-5z" fill="#F8F9FB"/>
<path transform="translate(1175,238)" d="m0 0 8 6 9 11 8 11 3 8v18l-1 2 2 3-1 5-3 3v7l1 11-2-2-7-37-4-13-4-7-2-5-6-7-1-6z" fill="#070724"/>
<path transform="translate(1092,1128)" d="m0 0h1v10l-2 1 4 13v11l-8 7-4-1-14-6-3-5 1-5 4-5 5-4 4-6 4-2 4-5h2v-2z" fill="#C2D2E7"/>
<path transform="translate(857,249)" d="m0 0 5 1 1 2-6 9h-2l-3 10-4 11-5 29-2 18-3-4-3-3v2h-2l-1 2 2-18 5-30 5-14 5-9 3-4z" fill="#090722"/>
<path transform="translate(819,747)" d="m0 0h1v6l3-1 3-3h1l-1 8-3 9-10 22-8 19-6 16-4 11-2-2-1-6-2-1 3-9 10-26 1-6 11-24z" fill="#09071D"/>
<path transform="translate(953,661)" d="m0 0h2l4 21 4 7-27-2-18-3-9-2 3-2 16-5 17-8z" fill="#FEC1A0"/>
<path transform="translate(977,307)" d="m0 0h21l-3 3-10 2-31 4-19 4-15 3-19 6-10 2-20 9-19 10-12 7v-3l17-12 19-9 27-10 15-5 14-3h7v-2l30-5z" fill="#A0B5D2"/>
<path transform="translate(1055,508)" d="m0 0h2l-1 9-6 9-6 5-4 5-3 2v3l-1 2 4 3-5 1h-12l4-2 1-2h-14l-9-7-5-5-2-6-6-5v-3l4 2 11 7 7 3 5 1h9l11-3 11-8h2l2-5z" fill="#170605"/>
<path transform="translate(886,731)" d="m0 0h1l1 15 3 10 7 11v3l-6 6h-2l-3-13-3-12-2 8-5 25-4 7-9 9-5 7-1 3h-2l2-6 7-15 12-37 6-17z" fill="#D2674C"/>
<path transform="translate(912,602)" d="m0 0 5 2 3 2v2l4 1 11 7v2l5 1v2l5 1 8 5 7 3 13 5 7 3 13 4v4l-8-1-19-4h-9l-10-5-15-9-6-2-1-9-7-6z" fill="#090829"/>
<path transform="translate(967,350)" d="m0 0 4 2 13 6 7 1h25l14-3 3 1-6 5 2 5-3 2-6 1h-27l-15-4-14-7v-3z" fill="#150505"/>
<path transform="translate(1101,217)" d="m0 0 10 2 19 7 18 10 16 12 14 12 5 5-1 2-6-3-3-3-7-4v-2l-5-2-19-11-15-7-36-13v-1h11z" fill="#A6BBD7"/>
<path transform="translate(996,225)" d="m0 0h37l26 2 22 4 9 2v1h-5l-1 2-5-2-9-2 1 7-4-5-3-3-9-2-9 12 2 4 11 17 4 2 2-4v3l-2 4-5-3-5-6-8-12-2-1-9 12-4 3 2-4 10-13-1-5 3 1 6-8 1-2h-14l1 5-6-6h-10l-5 5-2-1 3-4-16-1 7 8-1 2-9-9h-10l-5 5-7 9v2l8 7 7 10h4l-1 3-5-1-11-14-5-3-10 15-6 8-5-2-11-13-1-2 2-2 8 10 5 6 2 1 2-5 11-16 2-5 3-1 7-10-9-1v-1l10-2z" fill="#C1D1E6"/>
<path transform="translate(1102,240)" d="m0 0 5 1 5 2 1 3 4-4 11 4 4 9 1 10-11 14-2-3-10-17-3-6 4-5-5 3z" fill="#C3D3E7"/>
<path transform="translate(1193,1119)" d="m0 0h1l2 33 1 18-1 7-6-4-5-1 1-2v-17l-1-9v-19l-10 5h-12l-4-2v-2l15-2 13-2z" fill="#090724"/>
<path transform="translate(1240,978)" d="m0 0h2l3 11 1 8v39l-4 17-8 18-8 11-8 10-7 8-2-1 12-16 8-13 6-14 4-19 1-11v-22l-2-15-2-7z" fill="#FBBE9D"/>
<path transform="translate(1164,685)" d="m0 0 7 1 11 6 11 11 7 14 3 13v15l-4 10-2 1-1-23-6-16-6-10-11-11-10-5v-5z" fill="#F8F9FB"/>
<path transform="translate(1087,235)" d="m0 0 9 2 5 4 6 14v2l-8 7-5 6h-2l-11-18-4-7z" fill="#C3D3E7"/>
<path transform="translate(1158,678)" d="m0 0h1l1 6h6l-3 3-4 15-11 25-5 13-12 23-9 15h-2v-3l-5 3 2-5 9-16 10-19h2l3-10 2-3 3-9 3-7h2l6-22z" fill="#A0B6D3"/>
<path transform="translate(844,930)" d="m0 0 5 1 4 3-2 5-3 8 2 9 7 10 1 3h2l1 3-4 2h-9l-5-5-7-12-1-4v-11l4-7z" fill="#F7F8FA"/>
<path transform="translate(1008,447)" d="m0 0h1v12l-3 20-3 9 8-3h14l4 4-12 2-9 5-8 8-6 8 3 1 4 9-5-2-4-4-2-5 1-9 4-9h2l2-10 6-29z" fill="#FEFBFA"/>
<path transform="translate(1155,1705)" d="m0 0 8 1 4 3-1 4-4 5h-9l-1 22h-11l-1-1v-33z" fill="#F8F9FB"/>
<path transform="translate(888,1758)" d="m0 0h9l1 1v45l-1 1h-10v-33l-3-1-2-7v-4z" fill="#F7F9FB"/>
<path transform="translate(854,982)" d="m0 0h8l-4 4-8 6-2 4 1 9 7 12 7 6-1 2h-11l-4-1-7-11-4-11v-11l3-6 2-2z" fill="#F8F9FB"/>
<path transform="translate(839,455)" d="m0 0h12l10 6 4 4-1 4-13-5h-8l-9 6-6 9-2 9 1 15v11h-2l-4-13-1-16 2-10 6-12 7-6z" fill="#FAFAFC"/>
<path transform="translate(1202,281)" d="m0 0h2l2 17 4 28v44l-3-3-3-6-7-6-4-4 5 1 3 3v2h2l-3-26v-14l-1-10 2-5 2-1-1-5-1-3 1-1z" fill="#0B0B2C"/>
<path transform="translate(1231,816)" d="m0 0h1l2 8 3 3-10 14-20 20-14 11-5 3-8 7-1-3 11-13 21-21 7-8 9-10 3-4z" fill="#526B8F"/>
<path transform="translate(1045,732)" d="m0 0h11l4 3-1 2-3-1-10 2-17 8-19 11-15 10-13 8-14 6h-5v-3h2v-2l26-14 17-10 19-11 15-8z" fill="#FAFBFC"/>
<path transform="translate(830,1068)" d="m0 0h9l10 21 9 10 11 8v1h-10l-8-2-9-7-9-13-3-10z" fill="#F9FAFB"/>
<path transform="translate(956,1127)" d="m0 0 3 1-18 8-16 8-12 5-13 4-15 6-15 3h-18v-5l-2-4h21l20-3 31-9z" fill="#526B8F"/>
<path transform="translate(1044,503)" d="m0 0 4 2 2 5-1 7-4 6-3 3-9 4h-7l4-4 2-4 4-4-1-4-1-1h-18l-3-1v2l-13 2-2 2-2-5-2-1 2-4 3-2 14 4h6l1-1 12-2z" fill="#D56B4F"/>
<path transform="translate(904,247)" d="m0 0h1l2 11-7 14-8 13-4-3-5-10 3-4h2v-3h-5l2-7 2-3h3v-2z" fill="#FCFCFD"/>
<path transform="translate(1076,251)" d="m0 0h2l7 10 7 11-1 4-4 2-19-1-4-5v-2l-4-1 3-3 3-6 8-7z" fill="#FDFDFD"/>
<path transform="translate(967,545)" d="m0 0h13l29 1v1l-28 1 29 4 5 1h18l29-3 18-2 2 2-11 2-8 2-33 3-8 1-36-3-9-2-6-3-6 1-1 2-2-6z" fill="#D2674C"/>
<path transform="translate(995,1761)" d="m0 0h11v44h-11z" fill="#F8FAFB"/>
<path transform="translate(1197,475)" d="m0 0h7l6 8 1 3v7l-2 2-5-6v-2l-5-1-4 4-7 14-4 9-5 3-8 1 2-6 6-1 2-6 2-5v-5l-3 2 2-5 9-11z" fill="#482623"/>
<path transform="translate(1117,1040)" d="m0 0 4 1-8 11-3 5-1-2 1-2-10 3-8 8-4 6-10 12-8 10-13 15-11 12-7 7h-2l2-5 15-14 13-15 13-17 10-14 7-11 3-3-16 3-4-1 4-3 9-1 10-2z" fill="#526B8E"/>
<path transform="translate(1006,577)" d="m0 0h39l3 3v4l-5 3-38 1-6-3-1-5 3-2z" fill="#2D1416"/>
<path transform="translate(968,330)" d="m0 0h5l-5 5-5 2-1 5h-4l9 7-1 5-4 4-10-8-7-8h-8l-5 1-6-1v-2l-2-1 22-6z" fill="#0A061E"/>
<path transform="translate(1228,471)" d="m0 0h2l2 7 1 9v11l-3 15-8 16-8 10-5 5h-3l1-5 4-1v-3l3-5h2l1-7 2-3 5-18 2-21v-8h2z" fill="#06051F"/>
<path transform="translate(840,699)" d="m0 0 3 1v5l-5 8-6 18-4 19h-4l-1 3h-3l-1-9 4-17 5-14 6-9z" fill="#080626"/>
<path transform="translate(1143,360)" d="m0 0 7 2 10 35-1 9-2 16-1 10-2-2-5-37-5-27-2-5z" fill="#D4694E"/>
<path transform="translate(872,1412)" d="m0 0 18 1v1h-18v22l-6 162-1 5 27 2 3-71 1-5 2 2 4 19h-2l-3-10-1 22-1 38-2 7-22-1-7-2v-19l2-45 2-63 1-18 1-37 1-9z" fill="#733A35"/>
<path transform="translate(875,1217)" d="m0 0h27l1 1v181h-30l1-4 1 2h26v-178h-25l-1 93-3-2-4-12h2l2 6 1-86z" fill="#46343B"/>
<path transform="translate(1211,389)" d="m0 0 5 1 4 3-2 1v7l-8 20-6 17-1 2h-2l-2 5-5 1-2-1 3-9 10-26v-3l2-1 2-4 2-3-1-8z" fill="#070722"/>
<path transform="translate(843,1160)" d="m0 0 21 3 14 1-4 3-13 5-4 3-1 6-6 1-11-2v-9z" fill="#F7F8FA"/>
<path transform="translate(1079,767)" d="m0 0h2l-2 4-8 5-1 2h2v2l-26 13-17 8-8 3h-3l1-5 15-9 6-4h4v-2l3-2 9-3z" fill="#1F0B09"/>
<path transform="translate(856,374)" d="m0 0 2 1-11 14-5 10 1 8h3l3 13 3 12 4 9v2l-4-2-2-5h-2l-7-19-3-6-4-10-1-6h2v-3h2l2-4 5-6 10-7z" fill="#F0F3F7"/>
<path transform="translate(1109,657)" d="m0 0 4 4-2 4-9 11-9 10-6 7-16 14-5 2-7 6-3 5-5-1 6-7 28-28 8-7 9-9z" fill="#516A8D"/>
<path transform="translate(1308,1217)" d="m0 0h28l1 1v181h-29l1-2h26v-178h-25l-1 90-2 2-2-4 1-3 1-86z" fill="#46343A"/>
<path transform="translate(949,621)" d="m0 0 20 9 21 7 7 2 9 1h31l14-1v3h-2v2l-11 2h-23l-16-2-25-7-8-4-7-3-10-4 2-1v-2h-2z" fill="#91A7C5"/>
<path transform="translate(836,1027)" d="m0 0 4 2 3 2v2h-2l-1 5v13l5 5 9 4-2 2h-20l-5-6v-12l4-9z" fill="#F7F8FA"/>
<path transform="translate(1102,1112)" d="m0 0h1v8l-3 10v11l4 10v7l2-1 27-1 18 2v1h-44l-11 3-2 4h-3l3-3v-11l-4-13 1-3v2h2l-1-9-2-1 10-13z" fill="#536687"/>
<path transform="translate(873,365)" d="m0 0 3 1-12 24-2 3h-2v-6h-2l-2 4-9 10-4 4-2-2 1-6 6-11 9-11h3l1-4z" fill="#2C1619"/>
<path transform="translate(853,934)" d="m0 0 13 2 6 3 2 5-1 2h-2v2l-5 4-7 3h-3l-2 6h-2l-4-7-1-7 4-10z" fill="#A2B8D5"/>
<path transform="translate(990,267)" d="m0 0 6 1 3 2 6 12v2l-4-2-5-10-5-1-7 10-7 12-1 3 3 1v1l-11 1 3-3-1-5-10-13 2-4 14 1v-2l10 1 2-4z" fill="#B6C9E0"/>
<path transform="translate(852,1117)" d="m0 0 7 2 1 19 4 8 8 5-1 3h-18l-4-2v-15z" fill="#F3F6F8"/>
<path transform="translate(1243,878)" d="m0 0 1 2-9 11-11 13-8 8-9 11-7 8-5 5-9 10-4-1 2-4 10-10 9-12 12-13 11-14 9-11 5-1z" fill="#A2B8D5"/>
<path transform="translate(1197,454)" d="m0 0 10 1 6 4 6 7 4 8 3 13v9l-4 16-1 3h-2v-7l2-9v-12l-4-11-7-9-7-4-11-2-2-4z" fill="#F9FAFB"/>
<path transform="translate(1200,1421)" d="m0 0 2 1-1 187h27v-28l1-1h28v38h-2v-36h-25v28h-30z" fill="#C25538"/>
<path transform="translate(1071,799)" d="m0 0 2 1v7l1 2-13 5-19 9-17 6h-3l1-5 12-7h3l1-3 9-3 19-10z" fill="#1A0807"/>
<path transform="translate(883,1054)" d="m0 0h5l5 5v2l-7 2-27 4-12 1h-17v7h-1v-8l6-3v-2l17-1 17-4z" fill="#A3B9D5"/>
<path transform="translate(964,645)" d="m0 0h2l2 7 2 24 6 8 5 3 4 5-15 1-9-6-3-5-1-9 2 1 4-1z" fill="#D97357"/>
<path transform="translate(1136,666)" d="m0 0h1l2 9 1 4-8 19-9 14-4 9-6 8-4 4-4 6-5 3-6 9-3 4 1-6 8-12 9-12 12-19 11-23 3-10z" fill="#526B8F"/>
<path transform="translate(1216,1062)" d="m0 0 1 2-8 17-10 17-8 10-6 7-2-1-11 4h-7l-2-5 1-2 11-2 12-7 10-11 11-16z" fill="#D2664C"/>
<path transform="translate(860,306)" d="m0 0 3 1-3 5-3 7h3l4 1v-4l-1-4 4 4 1 2h3l2 5h2l1-4h2l2-6 2-2-2 9h-2l-2 5-3 3-18 8-4 3h-3l1-6 5-11h-2l-1-3 3-7h3l2-5z" fill="#C3D3E7"/>
<path transform="translate(1170,1041)" d="m0 0h5l1 2v10l-3 8-4 3h-11l-2-2 1-8-4 9-1-4 4-10 5-3 6-4z" fill="#FEC1A0"/>
<path transform="translate(790,825)" d="m0 0 3 1 1 12-4 14-2 13-1 14-1 4-4-1-2-11 1-19 8-26z" fill="#06051F"/>
<path transform="translate(1074,550)" d="m0 0h8l1 6-8 3-14 3-14 1h-11v-2l-3-1v-1l-7-1 4-2 33-3 8-2z" fill="#341718"/>
<path transform="translate(993,381)" d="m0 0 3 4v12l-4 6-2 2h-12l-1-2h-12v-2l-2-1v-3h-6v-1l29-4 3-4h3l-2-5h3z" fill="#160605"/>
<path transform="translate(1014,321)" d="m0 0 37 1v1l-5 1-1 3-32 1h-34l1-3-3-2z" fill="#A1B7D3"/>
<path transform="translate(907,257)" d="m0 0 4 2 11 14-1 3-7-8-5-7-9 16-6 13h19v2h-14l2 5-4-1-4-3-5 4 1-5 2-4-4-2-1-5-3-1-4-5-4 7h-2l2-6 2-9 3-4h2l1-3 1 4 4 1v3h-2l-2 5 4 6 3 5 4-5 9-16z" fill="#B9CBE2"/>
<path transform="translate(1104,1140)" d="m0 0 7 1 10 5 7 5h3l4 4 3 2-34 1-2-10-1-7z" fill="#C3D3E7"/>
<path transform="translate(1143,1032)" d="m0 0 1 3-2 8-1-4-4 8-7 8-2-1 1-3-16 4-1-3 9-13z" fill="#9FB5D2"/>
<path transform="translate(893,1155)" d="m0 0 7 1-3 2-7 3 1 2-10 1 2 7 4-2-5 6-2 1-17 2h-5l-2 1 1-5 8-5 10-4-20-2v-1l21-2 12-3z" fill="#C0D0E5"/>
<path transform="translate(1044,755)" d="m0 0 2 1h3l3 1 1 3-27 14-16 8h-4l1-5 11-8 16-9z" fill="#1F0A08"/>
<path transform="translate(1187,375)" d="m0 0 4 2 8 7 7 8 4 6-1 5-2 3-4-2-5-3-14-8-5-5-5-6v-2l5 2 4 3 5 1 3-1 5 8v2l3 1-1-4-10-15z" fill="#271316"/>
<path transform="translate(1078,340)" d="m0 0h11l8 1-4 2-7 6h-2l-1 5-11 7-6 4-2-1 1-2-1-2h-6l1-4 11-7z" fill="#C24C39"/>
<path transform="translate(1125,324)" d="m0 0 9 1 23 7-2 4-4 2v2l-2 1-9-1-4-1v-2l-12-2-4-2 2-2 2-3z" fill="#C0D1E6"/>
<path transform="translate(1223,1772)" d="m0 0h11v31h-11z" fill="#F8FAFB"/>
<path transform="translate(960,1772)" d="m0 0h11v31h-11z" fill="#FDFDFD"/>
<path transform="translate(1012,1708)" d="m0 0h11v31h-10l-1-1z" fill="#FBFCFD"/>
<path transform="translate(1108,331)" d="m0 0 12 1v2l8 1 8 2v2l7 1 15 6 6 3-1 2-11-1-18-6-27-7v-2l-4-1v-2z" fill="#94ABC9"/>
<path transform="translate(962,216)" d="m0 0h11v1l-21 4-7 4-26 7-22 10-11 6-5 2-4 2 5-6 22-12 14-7 25-7z" fill="#A9BED9"/>
<path transform="translate(923,339)" d="m0 0 3 1v2h6l-3 2-25 7-9 5-5 17-3 9h-1l1-7 1-6-2-4-4 1v-5l7-6 2-5 25-9z" fill="#0B071E"/>
<path transform="translate(1094,1047)" d="m0 0h6l-1 3h-2l-2 5-4 5-5 4-8-1-3 2-3-1v-4l1-2h-2v-4l5-4 5-1z" fill="#9FB5D2"/>
<path transform="translate(972,227)" d="m0 0h9l-3 3-10 2-1 3-3-2h-10l-4 2-7 14h-2l-2 6-6 8-8 14v3h-3l2-6 9-16 7-10 6-12-11 1 2 7h-2l-2-4h-8l-6 3h-2l-2 5-4 6-1 3h-4l1-3 3-4 2-6 14-7 36-9z" fill="#C1D1E6"/>
<path transform="translate(893,292)" d="m0 0 6 5 1 4h2l6 9v2h-6l-3-3h-6l-9 10-5 3 2-8 5-10 3-8z" fill="#FBFCFC"/>
<path transform="translate(1180,974)" d="m0 0 2 1-13 13-11 9-11 11-10 7-6 3h-2l2-4 5-7 12-9 12-10 13-9z" fill="#C0D1E6"/>
<path transform="translate(886,731)" d="m0 0h1l1 15 3 10 7 11v3l-6 6h-2l-3-13-3-12-2 8-1 6h-1l-1-11-1-4 5-15z" fill="#C4503C"/>
<path transform="translate(1183,1125)" d="m0 0h2l2 28v18l-7-3-1-9-1-27-1-3z" fill="#F5F7FA"/>
<path transform="translate(1225,1071)" d="m0 0h2l-1 6-10 14-6 9-5 5-7 5-2-1 9-14 8-16 3-4h3l3-1v-2z" fill="#C4503C"/>
<path transform="translate(1087,235)" d="m0 0 9 2 4 4-1 2-9-3-5 4 1 5 9 9h7l-1 4-7 8h-2l-11-18-4-7z" fill="#FCFCFD"/>
<path transform="translate(1114,317)" d="m0 0 9 1 26 8 22 8 13 7 6 5 3 5-5-2-11-7-11-5-15-6-29-8-3-3-5-2z" fill="#526B8F"/>
<path transform="translate(1132,921)" d="m0 0h2l1 3-17 12-14 12-15 10-19 14-2-1 12-11 8-7 12-9 11-9 8-4 10-8z" fill="#C3D3E7"/>
<path transform="translate(1091,277)" d="m0 0 3 1 5 9 4 11v5l-5-2-9-7-2-3-5 5-5 2 1-4 5-5 5-9z" fill="#FCFCFD"/>
<path transform="translate(1170,1082)" d="m0 0 4 1-1 4-3 8-6 7-3 4-1 7-4 1-3-5 1-7 4-8 10-11z" fill="#060526"/>
<path transform="translate(888,351)" d="m0 0h3l-2 5-6 5-16 8-5 1-13 3-6 2 4-4 15-9 16-7z" fill="#050424"/>
<path transform="translate(1178,1132)" d="m0 0h1l1 29v6l-14-5-4-2h2l-1-12-1-4h3l10 6 2 1z" fill="#C2D3E7"/>
<path transform="translate(874,384)" d="m0 0h2v2h2l-3 10-2 7-1-3-6 4-6 10-6 13h-1v-8l5-16 2-4 8-7z" fill="#050101"/>
<path transform="translate(831,398)" d="m0 0 3 1 4 8 3 9 4 9 3 9v2h2l4 6v2l-5-1-3-3v-2h-2l-1-4-4-1-6-16 1-7-2-7z" fill="#090A2C"/>
<path transform="translate(1184,347)" d="m0 0 4 1 11 8 5 5 1 7v9l-4-2-4-7-13-13-1-5z" fill="#F4F6F9"/>
<path transform="translate(1252,1011)" d="m0 0 2 1v16l-1 1v17l-4 4-1-2h-4l1-12 1-22h1l1 7 1-8z" fill="#080525"/>
<path transform="translate(1120,340)" d="m0 0 10 2 16 5 19 7 12 6v1h-7l-22-7-4-2-10-2-14-9z" fill="#050426"/>
<path transform="translate(1061,742)" d="m0 0h2l3 3 11 1 2 4 5 4-1 3-5-5-7-1-16 8-4-1-2-1-5 1 3-5 10-6z" fill="#0A0505"/>
<path transform="translate(1150,360)" d="m0 0 7 3v-2h6v2l-3 1 1 5 7 16 2 2v4h-2v-3l-4-2-3-3-3-1v4h-2l-6-20z" fill="#050202"/>
<path transform="translate(866,513)" d="m0 0h7l2 2 2 14 1 2v9h-1l-1-6-11-2v-3l-2-3v-10z" fill="#BF4B39"/>
<path transform="translate(865,674)" d="m0 0 2 1-8 7-6 4v3l6-2-2 4-8 7-6 5-1-3-4 2-3 1 2-5 5-10 10-5 1-3z" fill="#0B0922"/>
<path transform="translate(841,475)" d="m0 0h6l9 6 7 7v2h2l1 5-3 3 1 6-3 4 1-7-9-11-7-7h-3l-2-5z" fill="#542A25"/>
<path transform="translate(1e3 1092)" d="m0 0h2v2l-12 5-21 8h-2l-2 4-5 3-1 3-4 2-5-1-7-2h-10l1-2 27-7 19-7z" fill="#C0D1E6"/>
<path transform="translate(1180,1014)" d="m0 0 4 1 1 6 7 1 3 9 2 12v12l-1 5h-1l-1-9-2 3-3-23-1-8h-11l-4-5z" fill="#C24C39"/>
<path transform="translate(886,348)" d="m0 0h7l-2 1v2l-20 8-16 8-15 10 1-4 4-2 2-4 7-6h2v-2h2v-2l10-5 2 1-3 2 8-1 3-1 4-4z" fill="#97ADCA"/>
<path transform="translate(968,330)" d="m0 0h5l-5 5-15 4-14 2-7 2-6-1v-2l-2-1 22-6z" fill="#050426"/>
<path transform="translate(1126,646)" d="m0 0 7 1 7 5 1 7-1 7 2 5-3 7-1-3-2-9-2-6-3-3-10-5 1-5z" fill="#070628"/>
<path transform="translate(981,227)" d="m0 0h6l-2 5-8 10v2l8 7 7 10h4l-1 3-5-1-11-14-5-3-10 15-6 8-5-2-11-13-1-2 2-2 8 10 5 6 2 1 2-5 11-16 2-5 3-1 7-10-9-1v-1z" fill="#B4C7DF"/>
<path transform="translate(1073,810)" d="m0 0 3 2-2 5-12 9-10 6-10 5-12 4h-3v-2l12-5 20-13 10-6z" fill="#CA5942"/>
<path transform="translate(910,321)" d="m0 0 4 1-13 4h-3l-1 3-20 8-25 13-12 7v-3l17-12 19-9 27-10z" fill="#526B8F"/>
<path transform="translate(957,341)" d="m0 0 5 2 9 6 11 5 15 3h15l26-5 7-3 3 1-11 5-15 4-6 1h-25l-9-2-12-6-12-9z" fill="#C24C39"/>
<path transform="translate(1183,1023)" d="m0 0h5l3 14 1 7v12l-2 6-2-1v-3h-2l-1-4v-12l1-8-2-2-2 2z" fill="#1C0A09"/>
<path transform="translate(1101,241)" d="m0 0h2l4 9 4-2-3 6 12 20-1 2-10-15v-2l-5 2-7 8-3 3h-3l-11-17-2-4-8 7-4 2 3-5 3-3 1-3h2v-2l5 2 12 19v2l13-13h2l-6-14z" fill="#B2C5DE"/>
<path transform="translate(1225,1050)" d="m0 0 1 2-6 16-9 16-8 16-6 9 3 1-6 3-3-1 8-10 8-14v-4l2-5 7-15 3-8 5-5z" fill="#492623"/>
<path transform="translate(1091,221)" d="m0 0h6l30 10 17 9 16 8 6 4 1 4-11-6-16-9-18-8-31-11z" fill="#536C90"/>
<path transform="translate(985,213)" d="m0 0 25 1 29 1v1l-48 1-33 5-9 1 3-3 16-3 2-2z" fill="#C4D4E8"/>
<path transform="translate(1094,624)" d="m0 0 3 1-3 3-14 6-16 6-12 3-3-1 2-2v-2l26-8 12-5z" fill="#C3D3E6"/>
<path transform="translate(1042,485)" d="m0 0 5 3 5 8 3 10v8l-3 5-6 4-2-1 4-5 1-7-7-21z" fill="#FEF4F0"/>
<path transform="translate(1181,1026)" d="m0 0h1v24l-2 9-4 7-6 5-2 1h-9l-1-2 7-1 9-7 2-5 1-6 1-16z" fill="#F3B192"/>
<path transform="translate(1158,678)" d="m0 0h1l1 6h6l-3 3-4 15-11 25-3 7-1-4 6-15v-6l6-17z" fill="#536C90"/>
<path transform="translate(1e3 334)" d="m0 0h14l2 2-12 4-5 1h-17l-12-2 2-2 5-1z" fill="#586989"/>
<path transform="translate(820,468)" d="m0 0 4 2-4 20-2 3-2 4-3-1-1-3v-10l3-10z" fill="#070527"/>
<path transform="translate(857,249)" d="m0 0 5 1 1 2-6 9h-2l-3 10-2 2-3-5v-2l-4 2 2-6 6-10z" fill="#0A092B"/>
<path transform="translate(1182,682)" d="m0 0 6 2 1 3 7 6 7 11-1 2-7-3v2h-2l-7-8-2-4-1-7z" fill="#080823"/>
<path transform="translate(883,750)" d="m0 0 2 1 4 16v7l-5 3-5 6h-1v-8z" fill="#170706"/>
<path transform="translate(1101,217)" d="m0 0 10 2 19 7 9 5-3 1-11-2-9-3-17-4-2-2h5z" fill="#C1D2E6"/>
<path transform="translate(967,350)" d="m0 0 4 2 13 6 7 1 21 1v1l-27 1h-3l-11 1-8-5 3-6z" fill="#1A0908"/>
<path transform="translate(1229,1580)" d="m0 0h28v38h-2v-36h-25v28h-2v-29z" fill="#82382D"/>
<path transform="translate(879,274)" d="m0 0 7 7 1 5 5 2-2 4-4 5-3-1-3-9-8 1 4-10z" fill="#FEFEFE"/>
<path transform="translate(1219,517)" d="m0 0 1 3-3 3 1-4zm-3 6 1 4-1 3h-2l-2 5-1 4-4 1-1 7h-6l-2-1 1 4-5 1-16 1 4-2 6-2 11-6 10-9z" fill="#2A0F0C"/>
<path transform="translate(873,365)" d="m0 0 3 1-12 24-2 3h-2l2-11h-2l-1-5 2-2 1-4z" fill="#432422"/>
<path transform="translate(1108,1053)" d="m0 0h2l-1 7-12 16-5 2 2-5 7-11v-3l-15 15v-3l4-5 7-8 3-3z" fill="#A9BED8"/>
<path transform="translate(975,549)" d="m0 0 23 3 16 2 25 1v1l-17 2-36-3-9-2-4-3z" fill="#C24C39"/>
<path transform="translate(1203,408)" d="m0 0h3l-3 9-8 22-4 7-1-4 8-33z" fill="#F0F4F8"/>
<path transform="translate(1093,342)" d="m0 0h11l5 2v5l-2 2h-14l-10 2 1-4z" fill="#D46A4E"/>
<path transform="translate(979,276)" d="m0 0h5l-7 14-4 4-9-15v-1z" fill="#FEFEFE"/>
<path transform="translate(1187,375)" d="m0 0 4 2 8 7 7 8 4 6-1 5-2 3-4-2-3-9-12-18z" fill="#EFF2F7"/>
<path transform="translate(893,308)" d="m0 0h6l3 3 6 1 1-2h4v2l-24 8-10 4h-2l2-4h2l8-7z" fill="#C2D3E7"/>
<path transform="translate(829,360)" d="m0 0h1l1 28v9l3 7 1 7-2 6-2-4-3-9-4-2-1-5 5-10z" fill="#07061D"/>
<path transform="translate(1059,854)" d="m0 0v3l-8 7-5 1-10 5-10 7-8 4-2-1 4-3 3-5 5-4 14-5 12-5z" fill="#C4D4E8"/>
<path transform="translate(1092,338)" d="m0 0h24l4 1v2l5 2 7 5-2 1-20-5-21-3z" fill="#0E081E"/>
<path transform="translate(784,854)" d="m0 0 3 3 1 2-1 20-1 4-4-1-2-11v-8l3-8z" fill="#050426"/>
<path transform="translate(821,501)" d="m0 0 2 4 4 11v2l-2 1-1 3 4 2 4 7v2l-5-1-6-10-4-11v-4l3-2z" fill="#0A0720"/>
<path transform="translate(937,398)" d="m0 0 1 2-8 2-5 2-3 5-6 3-13-1 1-3 7-6 9 1 11-4z" fill="#170606"/>
<path transform="translate(1172,486)" d="m0 0h1v16l5-5 6-4-1 9-4 8-6 2-2 3-1-6 1-18z" fill="#271114"/>
<path transform="translate(1233,985)" d="m0 0h3l2 5v5l-10 4-5-1-3-3 6-7z" fill="#C24C39"/>
<path transform="translate(1e3 273)" d="m0 0h18l-2 4-7 11-5-5-4-7z" fill="#FEFEFE"/>
<path transform="translate(966,337)" d="m0 0h3v2h8l9 1v2h10v1l-16 2-5 1-8-3 2 5-4-2-5-4 2-4z" fill="#190808"/>
<path transform="translate(851,915)" d="m0 0h5l9 10 2 4h-9l-8-5-4-7z" fill="#F7F9FB"/>
<path transform="translate(1068,278)" d="m0 0 16 1v4l-7 10h-3l-6-13z" fill="#FEFEFE"/>
<path transform="translate(933,1772)" d="m0 0 6 1 4 5v6l-5 6-5 1z" fill="#5D3230"/>
<path transform="translate(949,621)" d="m0 0 20 9 21 7-2 1v2l-11-2-11-5-7-3-10-4 2-1v-2h-2z" fill="#BACBE0"/>
<path transform="translate(1132,338)" d="m0 0 8 1 18 7 6 3-1 2-11-1-18-6-4-2h4v-3z" fill="#526B8F"/>
<path transform="translate(843,304)" d="m0 0 1 3-2 13-1 9-3-4-3-3v2h-2l-1 2 2-18 3-3 1 5h2l1-4z" fill="#0D0D27"/>
<path transform="translate(1084,1070)" d="m0 0 2 2-11 14-24 28-12 12h-2l2-5 15-14 13-15 13-17z" fill="#526B8F"/>
<path transform="translate(842,288)" d="m0 0h4l-1 13-3 5-2 4-3 1-1-5h-1l1-9 3-1 1-6z" fill="#090829"/>
<path transform="translate(896,1529)" d="m0 0 2 2 4 19h-2l-3-10-1 22-1 38-2 7h-8l-4-2h11l3-71z" fill="#803F37"/>
<path transform="translate(1274,1319)" d="m0 0 3 3-1 69h-2z" fill="#722F29"/>
<path transform="translate(1170,983)" d="m0 0h2l-2 4-14 12-9 9-10 7-6 3h-2l2-4 5-4 8-5 13-11 10-8z" fill="#A5BBD7"/>
<path transform="translate(942,283)" d="m0 0h6l-6 12-4 5-4-6-1-6h-2v-3z" fill="#FBFCFD"/>
<path transform="translate(1177,469)" d="m0 0h1v13l1 4 1 10-5 6h-2l-1-7 2-18z" fill="#D2664B"/>
<path transform="translate(856,1108)" d="m0 0 16 2 2 5 7 3v1h-16l-3-2-4-2-2-3z" fill="#040420"/>
<path transform="translate(1206,1084)" d="m0 0 3 1-5 10-6 10-6 7 1 2-9 3-3 3-2 1h-6l3-2 6-2v-2l5-3 10-13 8-13z" fill="#2B1315"/>
<path transform="translate(1206,528)" d="m0 0v3l-9 9-14 8-7 3 1 2h-10l-2-1 1-9 1-6h1l2 10h8l9-4 11-7z" fill="#D2664C"/>
<path transform="translate(1035,817)" d="m0 0 8 1v2l5-2 3 1-22 9-7 1 1-5z" fill="#361819"/>
<path transform="translate(978,730)" d="m0 0 2 2 2 17 1-1 1-10h1v12l-3 8-8 9-3 1 2-5 5-13z" fill="#D0644A"/>
<path transform="translate(969,549)" d="m0 0 6 2 9 4 1 6h-8l-8-4-5-1 1-5z" fill="#1B0908"/>
<path transform="translate(1034,275)" d="m0 0h10l8 1-2 4-7 10-3-3z" fill="#FEFEFE"/>
<path transform="translate(983,360)" d="m0 0 8 2 2 4 2 1 15 1 1 2h-18l-15-4-5-2v-2l9-1z" fill="#070303"/>
<path transform="translate(1121,654)" d="m0 0 8 1 5 3 2 3v12l-2 1-4-11-5-3h-9l2-4z" fill="#EFF2F7"/>
<path transform="translate(1150,510)" d="m0 0h1l-1 15-10 20-2 1-1-5 2-8 4-8 5-1 1-10z" fill="#D56B4F"/>
<path transform="translate(1085,234)" d="m0 0h10l4 1v2l7 1 10 2-1 4-3 3v-4l-10-2-4-1-5-3-6-1-9 9-1 3-2-1-1 2v-2h-2v-2l8-5 3-4h2z" fill="#B9CBE2"/>
<path transform="translate(1175,238)" d="m0 0 8 6 9 11-1 3-15-7-1-5z" fill="#050406"/>
<path transform="translate(949,1542)" d="m0 0h1l3 60 26-2v2l-28 2-3-52h-1l1-9z" fill="#703C34"/>
<path transform="translate(921,280)" d="m0 0h5l4 4 1 4-5-4-1-2h-2l-4 7-4 12-1 2h-2l-2 9-1-2-4-2-3-5v-2h-2l-1-4h2v2h2v3h2l3 4 10-21h2z" fill="#99ADC9"/>
<path transform="translate(875,505)" d="m0 0 3 3 4 20-2 15-2-1-1-11-1-2z" fill="#070303"/>
<path transform="translate(1053,386)" d="m0 0 1 4 10 1v2l16 2v1l-19 1 2 2v4h-7l1-7-4-1z" fill="#16070A"/>
<path transform="translate(1071,331)" d="m0 0 14 1 27 5 3 2h-18l-14-3-12-4z" fill="#040426"/>
<path transform="translate(1107,1147)" d="m0 0h8l9 6 2 3-1 1h-12l-4-5-3-3z" fill="#FDFDFD"/>
<path transform="translate(867,507)" d="m0 0 4 2 5 3v9h-1l-2-7h-7l-2 2v10l3 5h-4l-4-11v-9l2-3v5l5-5z" fill="#442421"/>
<path transform="translate(1176,282)" d="m0 0 2 1 4 10 5 6-1 7-1-4-2-4-5-5 1 4h-3l-2 9-2-3-1-3v-7z" fill="#CFDCEC"/>
<path transform="translate(1098,1780)" d="m0 0 7 1 2 4-1 5-4 3-5-1-2-2v-7z" fill="#563233"/>
<path transform="translate(837,1780)" d="m0 0 7 1 2 4-1 5-4 3-5-1-2-3v-6z" fill="#533233"/>
<path transform="translate(868,1792)" d="m0 0 6 1 2 3v5l-3 3h-6l-3-3-1-4z" fill="#F5F7FA"/>
<path transform="translate(1210,760)" d="m0 0h2l1 2v18l-2 9-5 5 1-10z" fill="#AABFD9"/>
<path transform="translate(1166,367)" d="m0 0 5 2 11 8 5 6 1 4-6-2-6-4-8-11-2-1z" fill="#160605"/>
<path transform="translate(1184,1716)" d="m0 0h6l3 3v6l-3 3h-6l-3-4 1-6z" fill="#55302F"/>
<path transform="translate(1083,782)" d="m0 0 1 3-4 6-10 8v2l-26 13-3-1 25-15 12-9 4-5z" fill="#C6523D"/>
<path transform="translate(1018,769)" d="m0 0 2 1h3l2 1v4l-15 7h-4l1-5z" fill="#4C2523"/>
<path transform="translate(994,493)" d="m0 0 1 2-4 11 2 14 7 6 1 7-6-1 3-2-6-5-4-8v-12z" fill="#6D3B29"/>
<path transform="translate(1189,397)" d="m0 0 6 1 6 3 4 4v2l2 1h-11l-6-2z" fill="#050101"/>
<path transform="translate(883,260)" d="m0 0 1 4 4 1v3h-2l-2 5 2 6h-2l-4-4-4 5-1 2h-2l2-6 2-9 3-4h2z" fill="#B5C6DD"/>
<path transform="translate(1079,754)" d="m0 0 2 1 2 5-1 5-5 4-25 13-3-1 17-10 10-6 2-1z" fill="#C95741"/>
<path transform="translate(1006,536)" d="m0 0 6 2 7 3h7l10-3 2 2-2 3 4 3-5 1h-12l4-2 1-2h-14l-8-6z" fill="#271114"/>
<path transform="translate(862,368)" d="m0 0m-2 1 4 2-3 1-1 3-6 1-11 8h-3l2-4 1-5 8-4z" fill="#0B081F"/>
<path transform="translate(1192,1024)" d="m0 0 2 3 3 16v12l-1 5h-1l-1-9-2 3-1-10v-12h2z" fill="#D4694E"/>
<path transform="translate(965,1126)" d="m0 0 2 1-16 10-16 8-3 2-4-1 8-5h3l2-4 19-9z" fill="#B6C8E0"/>
<path transform="translate(1170,339)" d="m0 0 5 1 10 6-1 7 2 4-6-1-6-3 1-5 2-5-5-2z" fill="#C1D2E6"/>
<path transform="translate(1076,548)" d="m0 0 6 1v1l-11 2-8 2-8 1h-16l3-3 26-3z" fill="#CB6047"/>
<path transform="translate(1113,728)" d="m0 0v3l-11 15-10 15v-8l6-10 4-4h3l2-4 4-6z" fill="#A1B7D3"/>
<path transform="translate(914,229)" d="m0 0m-3 1h3v2l-8 4-2 3-16 8-7 3-4 2 5-6 22-12z" fill="#869CBA"/>
<path transform="translate(1058,724)" d="m0 0 5 2 6 7 2 8h9l5 3v1h-10l-6-2-5-7-2-7-4-3z" fill="#161A3D"/>
<path transform="translate(1202,428)" d="m0 0 3 1-1 6-5 10-5 1-2-1 3-9 1-2 3-1z" fill="#08082A"/>
<path transform="translate(1113,241)" d="m0 0h7l9 3v2h6l1 3h-4l3 10 6-8 3 1-7 8-1 6-3-1-3-13-2-6-5-1-10-3z" fill="#849BBA"/>
<path transform="translate(1068,216)" d="m0 0 11 1 16 3-1 2 13 5v1l-8-1-17-4-1-2-13-3z" fill="#A8BDD8"/>
<path transform="translate(1144,670)" d="m0 0h10l4 4v13l-1 5h-2l-1 2-1-20-9-2z" fill="#F2F5F8"/>
<path transform="translate(998,305)" d="m0 0h21l-1 2 5 1v1l-28 1 2-2-10-1v-1z" fill="#C4D4E8"/>
<path transform="translate(860,386)" d="m0 0h1v5l-3 3-3 7-8 5h-4l1-3h2l2-4 4-5h2l2-4z" fill="#150504"/>
<path transform="translate(1029,1146)" d="m0 0 2 1-13 11-12 8-6-2 4-2 11-8 5-4 5-1z" fill="#BECFE4"/>
<path transform="translate(870,445)" d="m0 0h1v17l-1 4 1 6-12-12 1-2 5-1 2-2 2 1z" fill="#080303"/>
<path transform="translate(1063,754)" d="m0 0h2l-1 3-17 9-12 7h-5v-2l29-15z" fill="#F9EAE3"/>
<path transform="translate(1101,241)" d="m0 0h2l4 9 4-2-3 6 12 20-1 2-10-15v-2l-5 2-8 9v-3l7-8 4-2-6-14z" fill="#8AA1BF"/>
<path transform="translate(1039,228)" d="m0 0 12 1-2 5-5 6-5-5-2-3v-3z" fill="#FEFEFE"/>
<path transform="translate(1043,241)" d="m0 0h2l10 15 5 7 3 1 2-4v3l-2 4-5-3-5-6-8-12-2-1-9 12-4 3 2-4 10-13z" fill="#A9BDD7"/>
<path transform="translate(1049,1553)" d="m0 0 8 2 9 1 1 1 1 48-1 1h-9v-2l8-1-1-38-1-7-12-2z" fill="#82493C"/>
<path transform="translate(1267,958)" d="m0 0 2 1-2 6-8 13-4 4-3-4h2l2-4 5-8 4-6z" fill="#0A0622"/>
<path transform="translate(964,647)" d="m0 0h1v40l-5-5-3-4v-5l2 1 4-1z" fill="#C34E3B"/>
<path transform="translate(1179,1123)" d="m0 0 3 1v3l-7 3h-12l-4-2v-2l15-2z" fill="#08092C"/>
<path transform="translate(1244 1e3)" d="m0 0 2 2v30l-2 7h-1v-30z" fill="#FCF4F0"/>
<path transform="translate(886,774)" d="m0 0h3l-1 5-9 9-8 7-6 6-2-1 10-10 5-10 1 2z" fill="#0B061E"/>
<path transform="translate(937,751)" d="m0 0 2 1-1 2h-2v2l-11 7-5 2v2h-3l-1 3-12 9-5 2v-2l8-5 1-2 3-1 5-5 12-9z" fill="#A4B8D2"/>
<path transform="translate(1209,456)" d="m0 0 4 1 6 4 5 6v2l4 1v3h-2l1 9-1 5h-1l-4-16-7-10z" fill="#110B0E"/>
<path transform="translate(1018,275)" d="m0 0 1 3-6 9-1 2h-2l3 4v2l-11 1h-14l2-2 17-1-1-5-2-4 2-1 4 4 6-10z" fill="#C3D3E7"/>
<path transform="translate(887,379)" d="m0 0 1 4-1 14-1 10-4 10h-1l1-18 4-17z" fill="#D1654B"/>
<path transform="translate(1227,1758)" d="m0 0 4 1 3 3-1 6-3 2-5-1-2-6 1-3z" fill="#F1F5F9"/>
<path transform="translate(964,1758)" d="m0 0 4 1 3 3-1 6-3 2-5-1-2-3 1-5z" fill="#F2F5F9"/>
<path transform="translate(1157,1052)" d="m0 0 1 3-1 7 1 1 9 1-4 2h6l-4 4-8 1-5-6 2-5z" fill="#D56C50"/>
<path transform="translate(813,478)" d="m0 0h1l1 6 4-4h2l-1 10-2 3-2 4-3-1-1-3v-10z" fill="#060622"/>
<path transform="translate(893,1155)" d="m0 0 7 1-3 2-11 4-7 1h-24v-1l21-2 12-3z" fill="#A3B9D6"/>
<path transform="translate(870,262)" d="m0 0 4 1 3 4v5l-4 1-5-3-5 3-2 1 1-4z" fill="#FEFEFE"/>
<path transform="translate(1094,624)" d="m0 0 3 1-3 3-14 6-7 1-1-3 17-7z" fill="#CFDCEB"/>
<path transform="translate(891,514)" d="m0 0 3 3 5 10v8l-4-2v-5h-2v5h-1l-1-7z" fill="#472422"/>
<path transform="translate(1016,1694)" d="m0 0 5 1 2 3-1 6-5 2-4-3v-6z" fill="#F4F7FA"/>
<path transform="translate(882,797)" d="m0 0h2l-2 12-2 1h-8l2-7 4-4z" fill="#C7D6E9"/>
<path transform="translate(1155,514)" d="m0 0h1l-1 18h-2l-2 3h-4l-1-4 7-12z" fill="#422321"/>
<path transform="translate(1211,389)" d="m0 0 5 1 4 3-2 1v7l-4 3-5-1 2-4-1-8z" fill="#080727"/>
<path transform="translate(1254,998)" d="m0 0 2 3v27l-2 13h-2v-12l1-1z" fill="#140908"/>
<path transform="translate(790,825)" d="m0 0 3 1 1 12-2-2-3 6-4 2 1-9z" fill="#060527"/>
<path transform="translate(1155,553)" d="m0 0 3 1 1 2v9l-2 6-6 2z" fill="#0C0B2B"/>
<path transform="translate(1188,429)" d="m0 0 2 2 2 8-3 8-6 2v-13l4 4z" fill="#462828"/>
<path transform="translate(943,200)" d="m0 0 5 1 3 3-9 3-11 4-2-1 9-8z" fill="#0A0C2E"/>
<path transform="translate(852,989)" d="m0 0 2 1-3 4-1 7 8 14 3 6-4-2-7-10-3-7 1-9z" fill="#A8BDD8"/>
<path transform="translate(859,1716)" d="m0 0 3 1v12l-3 1-5-5 1-6z" fill="#543B41"/>
<path transform="translate(1e3 334)" d="m0 0h14l2 2-12 4-5 1h-14v-1l15-3 3-1z" fill="#C04C3A"/>
<path transform="translate(896,281)" d="m0 0 1 3-3 6h19v2h-14l2 5-4-1-4-3-5 4 1-5 2-4 2-1 2-5z" fill="#B7C8DF"/>
<path transform="translate(955,658)" d="m0 0h1l1 5 7 2v9l-6 1v-2h-2z" fill="#532C28"/>
<path transform="translate(972,227)" d="m0 0h9l-3 3-10 2-1 3-3-2h-10l-4 1 1-3 11-3z" fill="#C4D4E8"/>
<path transform="translate(996,225)" d="m0 0h25l-2 3-17-1 7 8-1 2-9-9h-12l-3-2z" fill="#C4D4E8"/>
<path transform="translate(1198,926)" d="m0 0 1 3-2 4-9 11-3 2-3-1 2-4 10-10z" fill="#526B8F"/>
<path transform="translate(1e3 861)" d="m0 0h7l1 5-11 3-4-1v-3l1-2z" fill="#040426"/>
<path transform="translate(1064,1780)" d="m0 0 3 1v12l-3 1-4-3-1-5 3-5z" fill="#503A41"/>
<path transform="translate(1009,237)" d="m0 0 2 1 3 5 13 18 3-1-2 4-4-2-8-12-3-2-3-5-5 8-2-1 5-8z" fill="#B5C7DF"/>
<path transform="translate(818,825)" d="m0 0 3 1v3l-2 1-1 3-13 9v-3l7-10h4v-2h2z" fill="#221113"/>
<path transform="translate(1027,764)" d="m0 0 7 2v2l2 1-10 5-3-1h2l-2-2-5 1 2-4z" fill="#351617"/>
<path transform="translate(1128,411)" d="m0 0 10 1 2 3-1 5-3 1-8-4-1-4z" fill="#13060B"/>
<path transform="translate(858,358)" d="m0 0 5 1-4 4-9 5-1 3-9 6 1-4 4-2 2-4 7-6h2v-2z" fill="#5F779A"/>
<path transform="translate(1161,247)" d="m0 0 4 2 13 11 5 5-1 2-6-3-3-3-7-4-1-5-4-4z" fill="#AEC2DC"/>
<path transform="translate(1166,432)" d="m0 0h2l2 4 1 15-2 6-2-1z" fill="#050427"/>
<path transform="translate(1094,1076)" d="m0 0h2l-2 5-5 6-12 12h-2v-2h2l2-4 2-3h2l2-4 6-8z" fill="#B3C6DE"/>
<path transform="translate(940,874)" d="m0 0h5l1 3-7 4h-2v2l-3 1v-2h-3v-4z" fill="#060629"/>
<path transform="translate(1140,653)" d="m0 0 4 2 1 4h5v1l-5 1v8l-3 1-3-4z" fill="#0A061F"/>
<path transform="translate(1067,707)" d="m0 0 4 1-12 11-3 4h-11l5-5 6 1 2-5z" fill="#A6BBD7"/>
<path transform="translate(981,554)" d="m0 0 15 1 2 1-1 4h-13l-1-4z" fill="#2B1416"/>
<path transform="translate(1120,644)" d="m0 0 9 1v2l-7 1-1 4 3 1-4 1-7-6v-2z" fill="#0C071F"/>
<path transform="translate(845,478)" d="m0 0 6 1 7 8 1 7-5-3-3-5-6-6z" fill="#281114"/>
<path transform="translate(1129,457)" d="m0 0 4 1 1 1-1 7-4 4-1-5-3-3-6 2 3-3z" fill="#110706"/>
<path transform="translate(1054,292)" d="m0 0h9l3 5h-14l-8-1 1-2z" fill="#C4D4E8"/>
<path transform="translate(1219,517)" d="m0 0 1 3-3 3 1-4zm-3 6 1 4-1 3h-2l-2 5-1 4-4 1-2 2-2-1 2-4 7-8z" fill="#190908"/>
<path transform="translate(1064,338)" d="m0 0 2 1-11 8-7 3-5 1-5 2h-6l3-2 20-8z" fill="#442422"/>
<path transform="translate(866,310)" d="m0 0h6l4 5-1 8h-2l-7-11z" fill="#FEFEFE"/>
<path transform="translate(990,267)" d="m0 0 6 1 3 2 6 12v2l-4-2-5-10-5-1-3 4h-2l1-4z" fill="#AFC2DB"/>
<path transform="translate(957,341)" d="m0 0 5 2 9 6 11 5 4 2v3l-6-2-10-5-12-9z" fill="#AF4B3D"/>
<path transform="translate(1060,1101)" d="m0 0v3l-15 16-6 6h-2l2-5 15-14z" fill="#526B8F"/>
<path transform="translate(967,343)" d="m0 0 10 3 5 2v4l-9-1-4-2z" fill="#080303"/>
<path transform="translate(1080,805)" d="m0 0 3 1 1 2v8l-1 3-4-1-2-9z" fill="#050427"/>
<path transform="translate(1092,1128)" d="m0 0h1v10l-4 1-2-4-2 1 2-4 3-1v-2zm-8 8m-1 1m-3 1 3 1-6 5 2-5zm-4 6m-1 1m-1 1m-1 1m-2 1 2 1-2 1z" fill="#9EB3CE"/>
<path transform="translate(993,381)" d="m0 0 3 4-1 7-8 2h-7v-1l6-1 3-4h3l-2-5h3z" fill="#2B1213"/>
<path transform="translate(1051,360)" d="m0 0 4 2-1 3-14 3-6-1 4-2z" fill="#C34E3A"/>
<path transform="translate(976,273)" d="m0 0 10 1 1 2-2 2-1-1-15 1-6 1-2-5 15 1z" fill="#C3D3E7"/>
<path transform="translate(1088,771)" d="m0 0h4l3 5-1 7-2 3h-3z" fill="#080728"/>
<path transform="translate(1051,386)" d="m0 0h1l2 9 3 1v7l6 1v1h-7l-5-5-1-3v-8z" fill="#070302"/>
<path transform="translate(1187,377)" d="m0 0 3 1 10 15-1 4-4-4-8-13z" fill="#1D1014"/>
<path transform="translate(1254,1782)" d="m0 0 4 1v8l-5 1-3-3 1-5z" fill="#563B41"/>
<path transform="translate(961,1718)" d="m0 0h4v9l-4 1-4-3 1-5z" fill="#5B3A3D"/>
<path transform="translate(938,946)" d="m0 0 4 1-23 13-3-1 7-4 4-4 8-4z" fill="#A7BCD8"/>
<path transform="translate(963,645)" d="m0 0h1v20l-7-1-1-1v-6h7z" fill="#281114"/>
<path transform="translate(885,364)" d="m0 0 3 3-3 9-5-1 1-8z" fill="#040426"/>
<path transform="translate(1209,1085)" d="m0 0 1 2-7 13-6 9 3 1-6 3-3-1 8-10 9-16z" fill="#422321"/>
<path transform="translate(849,905)" d="m0 0h4v2l-12 2h-15l-9-1v-1l23-1z" fill="#0C0404"/>
<path transform="translate(1038,732)" d="m0 0m-1 1m-1 1v3l-11 6-4-1 2-6 11-1z" fill="#070508"/>
<path transform="translate(1131,698)" d="m0 0h1l-1 7-10 15-3 3 2-5 4-9z" fill="#A7BCD8"/>
<path transform="translate(992,517)" d="m0 0 4 2 11 7-3 4-2 3-2-2-2-6-6-5z" fill="#2C1416"/>
<path transform="translate(1172,486)" d="m0 0h1v16l4-1-1 6h-4v8l-2-4 1-20z" fill="#1D0A09"/>
<path transform="translate(929,1484)" d="m0 0 1 3-4 25-2 5h-1l-2-9 1-4 2 5 1-9 1-1 2-14z" fill="#7F4032"/>
<path transform="translate(975,765)" d="m0 0 5 4-16 8 2-4 4-5z" fill="#211418"/>
<path transform="translate(860,309)" d="m0 0 3 1 2 6v4l-4 1-3-2-2 1 2-6z" fill="#FDFDFD"/>
<path transform="translate(878,248)" d="m0 0 2 1-4 6-2 5 3 5-1 2-3-4-4 1-6 5 2-5 4-3h3l1-5-3 2 2-4z" fill="#C3D2E6"/>
<path transform="translate(1183,1113)" d="m0 0 1 2h-2v2l-9 4h-6l-5-4v-2h2l1 2h7z" fill="#EFA284"/>
<path transform="translate(1252,990)" d="m0 0h1l1 7v15l-2-1-1-6h-1l-1-9z" fill="#040425"/>
<path transform="translate(841,475)" d="m0 0h6l5 3 2 4-3-1v-2l-6-1 7 8 2 4-7-6-4-1-2-5z" fill="#5B2D27"/>
<path transform="translate(1193,369)" d="m0 0 9 6 1 4-5 1-5-5z" fill="#0D0D2F"/>
<path transform="translate(1101,1144)" d="m0 0 6 5v2l3 1 3 5-9 1-2-10z" fill="#A5BAD6"/>
<path transform="translate(1053,454)" d="m0 0 5 1 5 3-2 1h-4l1 5 5 5-5-2-6-6z" fill="#0C0606"/>
<path transform="translate(1e3 1092)" d="m0 0h2v2l-12 5-16 6h-5l3-2z" fill="#BBCCE3"/>
<path transform="translate(896,895)" d="m0 0 7 1 1 2-11 5h-3l2-5z" fill="#040426"/>
<path transform="translate(1095,650)" d="m0 0h8l5 3 2 4h-3l-13-4z" fill="#E9EEF4"/>
<path transform="translate(886,348)" d="m0 0h7l-2 1v2l-17 6 1-3 3-1 4-4z" fill="#90A6C5"/>
<path transform="translate(860,306)" d="m0 0 3 1-3 5-3 6h-2l-1 4h-2l-1-3 3-7h3l2-5z" fill="#8FA4C1"/>
<path transform="translate(877,769)" d="m0 0h1v11l-3 8-5 3 2-5z" fill="#F1A889"/>
<path transform="translate(883,750)" d="m0 0 2 1 2 7v5l-6 2 1-12z" fill="#311819"/>
<path transform="translate(841,493)" d="m0 0h1l2 13 4 9-1 2-4-6-4-3 1-13z" fill="#D56B4F"/>
<path transform="translate(1053,386)" d="m0 0 1 4 10 1v2l5 1v1h-14l-2-3z" fill="#271114"/>
<path transform="translate(1024,796)" d="m0 0 5 2 2 2-10 4h-3l1-5z" fill="#592B25"/>
<path transform="translate(1054,506)" d="m0 0h1v8l-3 5-6 4-2-1 4-5 1-7 1-3 2 4 2 1z" fill="#F9BA97"/>
<path transform="translate(872,487)" d="m0 0h1v14l-7-6 2-6 3 1z" fill="#D1654B"/>
<path transform="translate(877,367)" d="m0 0h3l-1 7-2 4h-4l-1 2 1-7z" fill="#432422"/>
<path transform="translate(979,340)" d="m0 0h7v2h10v1l-16 2-5 1-3-3 7-1z" fill="#2A1315"/>
<path transform="translate(1149,709)" d="m0 0 2 2-1 7-3 7-4 2 2-9z" fill="#9CB2CF"/>
<path transform="translate(1200,326)" d="m0 0h2l2 7v14l-2 4z" fill="#13132C"/>
<path transform="translate(1102,240)" d="m0 0 5 1 5 2-2 5-4 3z" fill="#FEFEFE"/>
<path transform="translate(1098,237)" d="m0 0 8 1 10 2-1 4-3 3v-4l-10-2h-2z" fill="#A2B7D3"/>
<path transform="translate(1083,782)" d="m0 0 1 3-4 6-10 8v2l-5 1 3-6 10-7 4-5z" fill="#CD6046"/>
<path transform="translate(956,722)" d="m0 0 4 1v8l-4 4-2-5v-5z" fill="#040425"/>
<path transform="translate(1131,248)" d="m0 0 9 3-1 4-5 5z" fill="#C2D2E7"/>
<path transform="translate(874,230)" d="m0 0 2 1-5 5-11 10h-2l2-4 11-10z" fill="#0B0506"/>
<path transform="translate(1059,216)" d="m0 0 19 3 4 2v1l-11-1-12-2z" fill="#C4D4E8"/>
<path transform="translate(1012,1147)" d="m0 0 2 1-13 10-7 4-1-3 16-10z" fill="#C4D4E8"/>
<path transform="translate(1174,380)" d="m0 0 5 2 6 4v3l3 3-5-1-7-6z" fill="#432422"/>
<path transform="translate(930,226)" d="m0 0 3 2-19 6-6 3-3-1 14-7z" fill="#C4D4E8"/>
<path transform="translate(1259,965)" d="m0 0 3 1-6 9-3 2-2-5z" fill="#526B8F"/>
<path transform="translate(1079,754)" d="m0 0 2 1 2 5-1 5-5 4h-3v-3l4-2z" fill="#CB5B44"/>
<path transform="translate(877,267)" d="m0 0h3l2 6 3 2 1 4h-2l-4-4-4 5-1 2h-2l2-6z" fill="#A7BBD6"/>
<path transform="translate(942,250)" d="m0 0 5 5 8 10 3 4-5-2-11-13-1-2z" fill="#BBCDE3"/>
<path transform="translate(980,192)" d="m0 0h6l3 3v2l-4 1h-7l1-5z" fill="#0A0B2E"/>
<path transform="translate(965,1126)" d="m0 0 2 1-16 10h-2l1-4 11-6z" fill="#C2D2E7"/>
<path transform="translate(1246,1014)" d="m0 0h1l1 7h1v12l-2 5h-1z" fill="#26243D"/>
<path transform="translate(965,626)" d="m0 0 15 5 1 3-7-1-11-5z" fill="#241416"/>
<path transform="translate(936,254)" d="m0 0h2l-2 4-11 19v3h-3l2-6 9-16z" fill="#B4C7DF"/>
<path transform="translate(873,255)" d="m0 0v3l-1 3-5 3h-2l-2 5-1 2h-2l1-5 5-6z" fill="#92A7C4"/>
<path transform="translate(971,246)" d="m0 0h2l-2 4-11 17h-3l9-14z" fill="#B4C6DF"/>
<path transform="translate(1065,1155)" d="m0 0 2 3 2 4 4 3-3 1v-2l-12-2 5-5z" fill="#50678A"/>
<path transform="translate(904,338)" d="m0 0h8l3 2-9 4h-4l1-3-2-2z" fill="#A1B7D4"/>
<path transform="translate(836,711)" d="m0 0 2 2-5 15-2-1 1-9 2-6z" fill="#0E0F2A"/>
<path transform="translate(1155,514)" d="m0 0h1l-1 18h-1l-1-5-3-1-1 2 1-4z" fill="#402B31"/>
<path transform="translate(1056,513)" d="m0 0h1v7l-4 8-3 3-2-1 2-5 5-8z" fill="#C5523D"/>
<path transform="translate(843,406)" d="m0 0h4l5 5v6l-3 3h-1l-2-13z" fill="#4C2C2C"/>
<path transform="translate(1144,292)" d="m0 0h2l-2 5-8 11 1 5h-5l2-6 9-12z" fill="#849BBB"/>
<path transform="translate(1067,1109)" d="m0 0 1 3-13 13-3-1z" fill="#ACC0DA"/>
<path transform="translate(993,510)" d="m0 0 1 2 3 1 4 9-5-2-4-4-1-4z" fill="#F9B797"/>
<path transform="translate(1091,275)" d="m0 0 3 1-1 2-4 2-3 5-4 1 2-6v-2zm-10 11 2 2-2 2z" fill="#9EB2CD"/>
<path transform="translate(904,247)" d="m0 0h1v5l-1-2-12 5-6 5-2-1 3-4h3v-2z" fill="#A4B8D1"/>
<path transform="translate(1063,754)" d="m0 0h2l-1 3-15 8-2-1 4-4z" fill="#FBFCFD"/>
<path transform="translate(891,514)" d="m0 0 3 3 1 5-2 11h-1l-1-7z" fill="#402326"/>
<path transform="translate(1055,508)" d="m0 0h2l-1 9-5 8-3-4 4-2 2-5z" fill="#3B1C1B"/>
<path transform="translate(978,336)" d="m0 0h11v1l-5 1 2 2-3 1-12-2 2-2z" fill="#AF513B"/>
<path transform="translate(956,272)" d="m0 0 5 1 1 4h-3v-2l-5 3-4 5v-4l4-6z" fill="#AEC1DA"/>
<path transform="translate(881,1163)" d="m0 0h7v2h-2v2h2v2l-6 3-1-5 1-2-3-1z" fill="#FBFCFD"/>
<path transform="translate(1153,1027)" d="m0 0h2l-1 12-1 8h-1l-2-17z" fill="#160C1E"/>
<path transform="translate(1184 1e3)" d="m0 0 2 1-4 4-10 4-5 3-2-1 17-10z" fill="#344465"/>
<path transform="translate(1060,633)" d="m0 0 5 1-4 2-10 3h-6v-2z" fill="#2C1C20"/>
<path transform="translate(1098,618)" d="m0 0h2l-1 3-17 8-1-3 14-6z" fill="#2A1C21"/>
<path transform="translate(1132,917)" d="m0 0m-1 1m-2 1 2 1-9 10-5 4h-2l2-4 3-3h2v-2z" fill="#AEC2DC"/>
<path transform="translate(1044,729)" d="m0 0 5 1 6 1v1l-13 2-5 2 2-4z" fill="#141319"/>
<path transform="translate(1172,1079)" d="m0 0v3l-6 4-4 4-2-1 4-5-5-1v-1l10-2z" fill="#B0C2DA"/>
<path transform="translate(878,1063)" d="m0 0h5l-3 1 3 5 1 7-4-4-3-6-3-2z" fill="#C5D5E8"/>
<path transform="translate(855,412)" d="m0 0 1 2h3l-3 9-3 4v-8z" fill="#150504"/>
<path transform="translate(881,311)" d="m0 0 1 3-2 6h-2l-2 5-4 1-2-5 5 2 1-4h2l2-6z" fill="#8EA4C1"/>
<path transform="translate(982,250)" d="m0 0 3 1 7 10h4l-1 3-5-1-8-10z" fill="#AEC1DA"/>
<path transform="translate(1010,1147)" d="m0 0 2 1-18 11-1 3-3-3 13-8z" fill="#94AAC8"/>
<path transform="translate(911,402)" d="m0 0 7 2-12 6h-3l1-2z" fill="#271114"/>
<path transform="translate(880,361)" d="m0 0 3 1-2 8-1-3-6 2 2-6z" fill="#261013"/>
<path transform="translate(1075,247)" d="m0 0 3 1v3l-8 7-4 2 3-5 3-3 1-3h2z" fill="#A6B7CE"/>
<path transform="translate(634,1320)" d="m0 0 3 3 3 12v5l-2-3-1-8-3 1z" fill="#5E424A"/>
<path transform="translate(921,280)" d="m0 0h5l4 4 1 4-5-4-1-2h-2l-5 9-1-4 1-2h2z" fill="#8CA2BF"/>
<path transform="translate(881,275)" d="m0 0 3 2 1-1 3 3 3 5v3l-4-1-1-5-3-1z" fill="#C4D4E8"/>
<path transform="translate(903,1413)" d="m0 0 2 1 3 15 1 6h-2l-4-19-4-2z" fill="#6D403F"/>
<path transform="translate(1175,1055)" d="m0 0h1l-1 7-5 4-7 1-2-2 8-2 4-4z" fill="#C5513D"/>
<path transform="translate(1029,793)" d="m0 0 6 1 1 4-7 1-3-2v-2z" fill="#321719"/>
<path transform="translate(841,532)" d="m0 0 16 12-2 1-11-7-3-4z" fill="#D56B4F"/>
<path transform="translate(939,281)" d="m0 0h7l3 2-19 3-1-3z" fill="#C4D4E8"/>
<path transform="translate(1087,1085)" d="m0 0v3l-10 11h-2v-2h2l2-4 2-3h2l2-4z" fill="#AABED9"/>
<path transform="translate(1142,1055)" d="m0 0h1v13l-4-2-1-4 1-2h2z" fill="#98ACC6"/>
<path transform="translate(1127,615)" d="m0 0m-2 1h2v4l-12 6 2-4z" fill="#0E081D"/>
<path transform="translate(1033,529)" d="m0 0h5l-2 3-3 1h-13v-1z" fill="#0A0505"/>
<path transform="translate(1051,490)" d="m0 0 3 4 3 11v3h-2l-3-9z" fill="#A24C34"/>
<path transform="translate(989,455)" d="m0 0h5v7l-2 1-2-5-2 2-5-1 3-2z" fill="#291412"/>
<path transform="translate(916,289)" d="m0 0 2 4-4 10-1-2-2-1z" fill="#B3C6DE"/>
<path transform="translate(1116,1142)" d="m0 0 7 2 5 4 1 4-4-2-9-6z" fill="#A6BBD6"/>
<path transform="translate(1157,361)" d="m0 0h6v2l-3 1 1 8-3-2-3-5v-2h2z" fill="#150504"/>
<path transform="translate(926,303)" d="m0 0h5l3 3-10 2h-2l2-4z" fill="#C4D4E8"/>
<path transform="translate(1022,270)" d="m0 0 2 1-4 6-1-4h-18l-1 2-1-3 22-1z" fill="#C4D4E8"/>
<path transform="translate(1085,234)" d="m0 0h10l4 1 1 6-7-4-8-1z" fill="#B1C4DD"/>
<path transform="translate(860,929)" d="m0 0 9 1-4 2-10 2-1-3z" fill="#040420"/>
<path transform="translate(875,390)" d="m0 0 1 3-3 10-1-3-4 3h-2l2-5 5-1 1-5z" fill="#150504"/>
<path transform="translate(1141,251)" d="m0 0 3 1-7 8-1 6-3-1 2-6z" fill="#768DAD"/>
<path transform="translate(976,240)" d="m0 0 2 1-1 3 6 5-2 2-6-5-3-1 1-4z" fill="#C3D3E7"/>
<path transform="translate(904,212)" d="m0 0 3 1-4 3-10 5h-2v-2z" fill="#090406"/>
<path transform="translate(924,203)" d="m0 0 4 1-12 5-6 4-2-1 3-3z" fill="#090403"/>
<path transform="translate(1055,746)" d="m0 0 2 2-13 8-4 1 4-4z" fill="#CF6148"/>
<path transform="translate(1043,242)" d="m0 0v3l-9 12-4 3 2-4z" fill="#B1C4DD"/>
<path transform="translate(868,1038)" d="m0 0 1 3v7l2 7h-4l-1-8z" fill="#FEFEFE"/>
<path transform="translate(884,904)" d="m0 0 3 1-16 6-3-1 7-4z" fill="#040426"/>
<path transform="translate(946,239)" d="m0 0 1 2-4 8h-2l-2 6-2-2 8-13z" fill="#C4D4E8"/>
<path transform="translate(1173,1780)" d="m0 0 5 2v3h-8l1-4z" fill="#553639"/>
<path transform="translate(1067,1592)" d="m0 0h1v13l-1 1h-9v-2l8-1z" fill="#612F2A"/>
<path transform="translate(1087,1087)" d="m0 0v3l-12 14v-3l7-8z" fill="#C4D4E8"/>
<path transform="translate(835,1062)" d="m0 0 7 1-1 3-2 1h-8l4-4z" fill="#587093"/>
<path transform="translate(1254,1028)" d="m0 0h1l-1 13h-2v-12z" fill="#100914"/>
<path transform="translate(848,1024)" d="m0 0 4 1-3 1 3 5 2 2-5-1-4-5v-2z" fill="#080A26"/>
<path transform="translate(1170,983)" d="m0 0h2l-2 4-9 8h-2l2-4z" fill="#ACC0DA"/>
<path transform="translate(1180,974)" d="m0 0 2 1-9 9-3-1v-2z" fill="#BBCDE3"/>
<path transform="translate(1017,496)" d="m0 0 4 1 1 4-5 1-2-4z" fill="#FEFEFE"/>
<path transform="translate(957,341)" d="m0 0 5 2 10 7-1 3-13-10z" fill="#9F4539"/>
<path transform="translate(1045,1116)" d="m0 0 1 3-7 7h-2l2-5z" fill="#7D95B5"/>
<path transform="translate(873,805)" d="m0 0v3l-1 2h8v1l-5 1h-8z" fill="#FEFEFE"/>
<path transform="translate(858,550)" d="m0 0 4 2-7 3h-3l-2-2 3-2z" fill="#150607"/>
<path transform="translate(999,518)" d="m0 0 6 4 5 4 2 2-5-1-7-4z" fill="#D2674C"/>
<path transform="translate(959,408)" d="m0 0 3 1v2l-2 1h-8l-2-2z" fill="#C24C39"/>
<path transform="translate(1025,266)" d="m0 0 4 1 3 4v2h-2l-1-2-7-1v-2z" fill="#BDCEE4"/>
<path transform="translate(1089,1163)" d="m0 0h4l-2 4-4 3h-3l2-4z" fill="#F4F7FA"/>
<path transform="translate(1110,1044)" d="m0 0h6l-4 6-4-2-1-3z" fill="#A2B8D5"/>
<path transform="translate(1054,257)" d="m0 0 5 5 4 2 2-4v3l-2 4-5-3-4-4z" fill="#9FB3CE"/>
<path transform="translate(1128,247)" d="m0 0 4 1 2 8v7l-2-4z" fill="#9CB2D0"/>
<path transform="translate(1200,1791)" d="m0 0 6 1 1 4h-5l-3-4z" fill="#613F44"/>
<path transform="translate(989,1726)" d="m0 0 6 2 1 4-6-1-2-3z" fill="#6A454A"/>
<path transform="translate(1075,1122)" d="m0 0 2 1-7 8-6 4 2-4 6-5z" fill="#AABED9"/>
<path transform="translate(1206,1084)" d="m0 0 3 1-4 8-4 2 2-5z" fill="#2F1618"/>
<path transform="translate(1088,1045)" d="m0 0 4 2-8 3-4-1 4-3z" fill="#4C6183"/>
<path transform="translate(1050,718)" d="m0 0 6 2v3h-11z" fill="#98AECC"/>
<path transform="translate(1059,397)" d="m0 0 4 2v4h-7l1-5 2 1z" fill="#150504"/>
<path transform="translate(851,329)" d="m0 0h2l-1 9-4 1 1-6z" fill="#AEC2DC"/>
<path transform="translate(887,297)" d="m0 0 1 4-4 9-2 1 1-6z" fill="#9AAFCB"/>
<path transform="translate(883,303)" d="m0 0 1 2-2 6-4 2 1-7z" fill="#FAFBFC"/>
<path transform="translate(983,277)" d="m0 0h2l-1 4-6 10-1-3z" fill="#B9CBE2"/>
<path transform="translate(970,768)" d="m0 0 2 1-1 5-7 3 2-4z" fill="#5C2B26"/>
<path transform="translate(1178,284)" d="m0 0h2l6 13-3-1-5-10z" fill="#A8BDD8"/>
<path transform="translate(1396,1257)" d="m0 0 2 1-8 8-3-1 5-5z" fill="#452C2F"/>
<path transform="translate(1092,1128)" d="m0 0h1v10h-2l-2-7z" fill="#B3C6DE"/>
<path transform="translate(925,759)" d="m0 0 2 1-5 5h-2v2l-5 1 5-5z" fill="#839AB9"/>
<path transform="translate(847,693)" d="m0 0 2 3-2 4-2 1-2-5 1-2z" fill="#101335"/>
<path transform="translate(914,456)" d="m0 0 4 1 2 3-7 1-1 2 1-6z" fill="#090304"/>
<path transform="translate(1018,275)" d="m0 0 1 3-6 9h-2l2-5 4-6z" fill="#B4C7DF"/>
<path transform="translate(1037,835)" d="m0 0 2 1-1 2-8 3h-3v-2z" fill="#C7543E"/>
<path transform="translate(988,638)" d="m0 0h6l2 2-1 2-8-1z" fill="#9BB1CE"/>
<path transform="translate(948,620)" d="m0 0 7 1 5 3v2l-6-2-6-3z" fill="#311A1B"/>
<path transform="translate(1193,351)" d="m0 0 5 1 3 3v2h2l-1 3-9-8z" fill="#526B8F"/>
<path transform="translate(863,308)" d="m0 0h2l4 7-1 4-5-7z" fill="#9CB1CD"/>
</svg>
